<?xml version="1.0" encoding="utf-8"?>
<!-- Generator: Adobe Illustrator 16.0.4, SVG Export Plug-In . SVG Version: 6.00 Build 0)  -->
<svg version="1.2" baseProfile="tiny" id="Layer_1" xmlns="http://www.w3.org/2000/svg" xmlns:xlink="http://www.w3.org/1999/xlink"
	 x="0px" y="0px" width="600px" height="600px" viewBox="0 0 600 600" xml:space="preserve">
<path d="M446.333,0H91.172c-49.5,0-90,40.5-90,90v355.163c0,49.5,40.5,90,90,90h232.183V406.811
	c0-45.903,37.558-83.461,83.461-83.461h129.518V90C536.333,40.5,495.833,0,446.333,0z M268.752,344.969
	c-42.74,0-77.387-34.648-77.387-77.387c0-42.74,34.647-77.387,77.387-77.387c42.739,0,77.386,34.647,77.386,77.387
	C346.139,310.32,311.491,344.969,268.752,344.969z"/>
<path d="M535.45,360.683H424.237c-34.952,0-63.55,28.598-63.55,63.55v111.214c0,34.952,28.598,63.55,63.55,63.55H535.45
	c34.952,0,63.55-28.598,63.55-63.55V424.232C599,389.28,570.402,360.683,535.45,360.683z M570.991,535.446
	c0,9.423-3.716,18.329-10.464,25.077s-15.654,10.464-25.077,10.464H424.237c-9.423,0-18.329-3.716-25.077-10.464
	s-10.464-15.654-10.464-25.077V424.232c0-9.423,3.716-18.329,10.464-25.077s15.654-10.464,25.077-10.464H535.45
	c9.423,0,18.329,3.716,25.077,10.464s10.464,15.654,10.464,25.077V535.446z"/>
<circle cx="479.843" cy="479.84" r="35.128"/>
</svg>
