<?xml version="1.0" encoding="utf-8"?>
<!-- Generator: Adobe Illustrator 16.0.4, SVG Export Plug-In . SVG Version: 6.00 Build 0)  -->
<!DOCTYPE svg PUBLIC "-//W3C//DTD SVG 1.1//EN" "http://www.w3.org/Graphics/SVG/1.1/DTD/svg11.dtd">
<svg version="1.1" id="Layer_1" xmlns="http://www.w3.org/2000/svg" xmlns:xlink="http://www.w3.org/1999/xlink" x="0px" y="0px"
	 width="600px" height="600px" viewBox="0 0 600 600" enable-background="new 0 0 600 600" xml:space="preserve">
<path display="none" d="M155.715,97.133L130.29,71.708C175.8,26.198,236.308,1.135,300.667,1.134
	c64.359-0.001,124.866,25.062,170.375,70.57L445.615,97.13C365.692,17.206,235.644,17.207,155.715,97.133z"/>
<path display="none" d="M399.106,143.64c-54.281-54.279-142.603-54.281-196.883,0l-25.426-25.426
	c68.3-68.299,179.432-68.299,247.735,0L399.106,143.64z"/>
<path display="none" d="M252.683,194.099l-25.426-25.425c19.607-19.608,45.678-30.407,73.407-30.407
	c27.729,0,53.8,10.798,73.407,30.407l-25.427,25.425c-12.814-12.816-29.854-19.875-47.98-19.875S265.499,181.283,252.683,194.099z"
	/>
<g display="none">
	<path display="inline" d="M540,265.841c7.703,0,14.99,3.044,20.518,8.571c5.528,5.527,8.571,12.813,8.571,20.517V540
		c0,7.703-3.044,14.99-8.571,20.518c-5.526,5.528-12.813,8.571-20.518,8.571H60c-7.704,0-14.99-3.044-20.517-8.571
		c-5.527-5.526-8.571-12.813-8.571-20.518V294.929c0-7.704,3.044-14.99,8.571-20.517c5.527-5.527,12.813-8.571,20.517-8.571H540
		 M540,234.929H60c-33,0-60,27-60,60V540c0,33,27,60,60,60h480c33,0,60-27,60-60V294.929C600,261.929,573,234.929,540,234.929
		L540,234.929z"/>
	<path display="inline" d="M500.089,355.329H99.91c-7.367,0-13.34-5.974-13.34-13.34c0-7.368,5.973-13.341,13.34-13.341h400.179
		c7.367,0,13.341,5.973,13.341,13.341C513.43,349.355,507.456,355.329,500.089,355.329z"/>
	<circle display="inline" cx="194.655" cy="341.989" r="45.2"/>
	<path display="inline" d="M500.089,509.893H99.91c-7.367,0-13.34-5.973-13.34-13.34s5.973-13.342,13.34-13.342h400.179
		c7.367,0,13.341,5.975,13.341,13.342S507.456,509.893,500.089,509.893z"/>
	<path display="inline" d="M437.786,496.553c0,24.965-20.239,45.197-45.203,45.197c-24.962,0-45.197-20.232-45.197-45.197
		c0-24.963,20.235-45.199,45.197-45.199C417.547,451.354,437.786,471.59,437.786,496.553z"/>
</g>
<path d="M540,117.465H60c-33,0-60,27-60,60v245.07c0,33,27,60,60,60h480c33,0,60-27,60-60v-245.07
	C600,144.464,573,117.465,540,117.465z M500.089,392.428h-64.307c-5.691,18.451-22.879,31.857-43.199,31.857
	c-20.318,0-37.503-13.406-43.194-31.857H99.91c-7.367,0-13.34-5.973-13.34-13.34s5.973-13.342,13.34-13.342H349.39
	c5.691-18.45,22.876-31.857,43.193-31.857c20.319,0,37.506,13.407,43.199,31.857h64.307c7.367,0,13.341,5.975,13.341,13.342
	S507.456,392.428,500.089,392.428z M500.089,237.864H237.851c-5.691,18.45-22.876,31.858-43.195,31.858
	c-20.319,0-37.505-13.407-43.197-31.858H99.91c-7.367,0-13.34-5.974-13.34-13.34c0-7.368,5.973-13.341,13.34-13.341h51.548
	c5.692-18.453,22.878-31.86,43.197-31.86c20.319,0,37.504,13.407,43.195,31.86h262.238c7.367,0,13.341,5.973,13.341,13.341
	C513.43,231.891,507.456,237.864,500.089,237.864z"/>
</svg>
