<?xml version="1.0" encoding="utf-8"?>
<!-- Generator: Adobe Illustrator 16.0.4, SVG Export Plug-In . SVG Version: 6.00 Build 0)  -->
<svg version="1.2" baseProfile="tiny" id="Layer_1" xmlns="http://www.w3.org/2000/svg" xmlns:xlink="http://www.w3.org/1999/xlink"
	 x="0px" y="0px" width="600px" height="600px" viewBox="0 0 600 600" xml:space="preserve">
<path d="M446.333,0H91.172c-49.5,0-90,40.5-90,90v355.163c0,49.5,40.5,90,90,90h232.184V406.811
	c0-45.902,37.558-83.461,83.461-83.461h129.518V90C536.333,40.5,495.833,0,446.333,0z M268.752,344.969
	c-42.74,0-77.387-34.648-77.387-77.387c0-42.74,34.647-77.387,77.387-77.387c42.739,0,77.386,34.647,77.386,77.387
	C346.139,310.32,311.491,344.969,268.752,344.969z"/>
<path d="M535.917,359.684H423.771c-35.245,0-64.084,28.838-64.084,64.082v112.147c0,35.245,28.839,64.083,64.084,64.083h112.146
	c35.245,0,64.083-28.838,64.083-64.083V423.766C600,388.521,571.162,359.684,535.917,359.684z M479.843,514.969
	c-19.398,0-35.128-15.729-35.128-35.129c0-19.399,15.729-35.129,35.128-35.129c19.399,0,35.129,15.729,35.129,35.129
	C514.972,499.24,499.242,514.969,479.843,514.969z"/>
</svg>
