<?xml version="1.0" encoding="utf-8"?>
<!-- Generator: Adobe Illustrator 16.0.4, SVG Export Plug-In . SVG Version: 6.00 Build 0)  -->
<svg version="1.2" baseProfile="tiny" id="Layer_1" xmlns="http://www.w3.org/2000/svg" xmlns:xlink="http://www.w3.org/1999/xlink"
	 x="0px" y="0px" width="600px" height="600px" viewBox="0 0 600 600" xml:space="preserve">
<path d="M278.151,559.066c0,21.964-17.97,39.934-39.933,39.934H110.557c-21.963,0-39.933-17.97-39.933-39.934V40.933
	C70.624,18.97,88.594,1,110.557,1h127.661c21.963,0,39.933,17.97,39.933,39.933V559.066z"/>
<path d="M529.227,559.066c0,21.964-17.97,39.934-39.934,39.934h-127.66c-21.964,0-39.934-17.97-39.934-39.934V40.933
	C321.699,18.97,339.669,1,361.633,1h127.66c21.964,0,39.934,17.97,39.934,39.933V559.066z"/>
</svg>
