<?xml version="1.0" encoding="utf-8"?>
<!-- Generator: Adobe Illustrator 16.0.4, SVG Export Plug-In . SVG Version: 6.00 Build 0)  -->
<svg version="1.2" baseProfile="tiny" id="Layer_1" xmlns="http://www.w3.org/2000/svg" xmlns:xlink="http://www.w3.org/1999/xlink"
	 x="0px" y="0px" width="600px" height="600px" viewBox="0 0 600 600" xml:space="preserve">
<path d="M155.715,97.133L130.29,71.708C175.8,26.198,236.308,1.135,300.667,1.134c64.359-0.001,124.866,25.062,170.375,70.57
	L445.615,97.13C365.692,17.206,235.644,17.207,155.715,97.133z"/>
<path d="M399.106,143.64c-54.281-54.279-142.602-54.281-196.883,0l-25.426-25.426c68.3-68.299,179.432-68.299,247.735,0
	L399.106,143.64z"/>
<path d="M252.683,194.099l-25.426-25.425c19.607-19.608,45.678-30.407,73.407-30.407c27.73,0,53.8,10.798,73.407,30.407
	l-25.426,25.425c-12.815-12.816-29.855-19.875-47.981-19.875S265.499,181.283,252.683,194.099z"/>
<g>
	<path d="M540,265.841c7.703,0,14.99,3.044,20.518,8.571s8.571,12.813,8.571,20.517V540c0,7.703-3.044,14.99-8.571,20.518
		s-12.814,8.571-20.518,8.571H60c-7.704,0-14.99-3.044-20.517-8.571c-5.527-5.527-8.571-12.814-8.571-20.518V294.929
		c0-7.704,3.044-14.99,8.571-20.517c5.527-5.527,12.813-8.571,20.517-8.571H540 M540,234.929H60c-33,0-60,27-60,60V540
		c0,33,27,60,60,60h480c33,0,60-27,60-60V294.929C600,261.929,573,234.929,540,234.929L540,234.929z"/>
	<path d="M500.089,355.329H99.91c-7.367,0-13.34-5.973-13.34-13.34c0-7.368,5.973-13.341,13.34-13.341h400.179
		c7.367,0,13.341,5.973,13.341,13.341C513.43,349.356,507.456,355.329,500.089,355.329z"/>
	<circle cx="194.655" cy="341.989" r="45.2"/>
	<path d="M500.089,509.893H99.91c-7.367,0-13.34-5.973-13.34-13.34s5.973-13.342,13.34-13.342h400.179
		c7.367,0,13.341,5.975,13.341,13.342S507.456,509.893,500.089,509.893z"/>
	<path d="M437.786,496.553c0,24.965-20.239,45.197-45.203,45.197c-24.962,0-45.197-20.232-45.197-45.197
		c0-24.963,20.235-45.199,45.197-45.199C417.547,451.354,437.786,471.59,437.786,496.553z"/>
</g>
<path display="none" d="M600,540c0,33-27,60-60,60H60c-33,0-60-27-60-60V294.929c0-33,27-60,60-60h480c33,0,60,27,60,60V540z
	 M513.43,341.989c0-7.368-5.974-13.341-13.341-13.341H99.91c-7.367,0-13.34,5.973-13.34,13.341c0,7.367,5.973,13.34,13.34,13.34
	h400.179C507.456,355.329,513.43,349.356,513.43,341.989z M194.656,296.789c-24.963,0-45.201,20.236-45.201,45.201
	c0,24.963,20.237,45.199,45.201,45.199c24.963,0,45.199-20.236,45.199-45.199C239.854,317.024,219.619,296.789,194.656,296.789z
	 M513.43,496.553c0-7.367-5.974-13.342-13.341-13.342H99.91c-7.367,0-13.34,5.975-13.34,13.342s5.973,13.34,13.34,13.34h400.179
	C507.456,509.893,513.43,503.92,513.43,496.553z M392.583,451.354c-24.962,0-45.197,20.236-45.197,45.199
	c0,24.965,20.235,45.197,45.197,45.197c24.964,0,45.203-20.232,45.203-45.197C437.786,471.59,417.547,451.354,392.583,451.354z"/>
</svg>
