<?xml version="1.0" encoding="utf-8"?>
<!-- Generator: Adobe Illustrator 16.0.4, SVG Export Plug-In . SVG Version: 6.00 Build 0)  -->
<svg version="1.2" baseProfile="tiny" xmlns="http://www.w3.org/2000/svg" xmlns:xlink="http://www.w3.org/1999/xlink" x="0px"
	 y="0px" width="124.504px" height="95.216px" viewBox="0 0 124.504 95.216" xml:space="preserve">
<g id="Layer_1">
	<g id="Daisy">
	</g>
</g>
<g id="Layer_2">
	<g id="Daisy_1_">
		<path fill="#FFD600" d="M62.851,26.193c0.002-0.127,0.005-0.255,0.007-0.382c0.15,0.157,0.354,0.256,0.465,0.458
			c0.08,0.145,0.204,0.241,0.39,0.213c0.047-0.007,0.099,0.003,0.147,0.013c0.295,0.063,0.301,0.066,0.398-0.211
			c0.08-0.229,0.226-0.397,0.453-0.464c0.15-0.044,0.272-0.1,0.333-0.244c0.208,0.088,0.386,0.229,0.225-0.122
			c-0.065-0.141-0.263-1.095,0.264-0.655c0.1,0.083,0.214,0.063,0.32,0.035c0.086-0.153,0.056-0.344,0.184-0.439
			c0.17,0.1,0.354,0.126,0.55,0.079c0.081-0.011,0.134-0.07,0.104-0.164c-0.021-0.067-0.048-0.133-0.073-0.201
			c0.082-0.032,0.139-0.055,0.168-0.066c-0.112-0.32-0.152-0.648-0.12-0.986c-0.154-0.071-0.279-0.129-0.416-0.192
			c0.205-1.612,0.064-3.195-0.181-4.776c0.034,0.016,0.052,0.033,0.061,0.054c0.175,0.45,0.333,0.907,0.526,1.35
			c0.279,0.642,0.563,1.282,0.883,1.904c0.533,0.659,0.905,1.388,1.116,2.186c0.098,0.555,0.235,1.1,0.411,1.635
			c0.354-0.279,0.64-0.207,0.856,0.217c0.053-0.205,0.118-0.346,0.281-0.382c0.202-0.044,0.409-0.069,0.615-0.095
			c0.259-0.032,0.301-0.099,0.188-0.339c0.841-0.853,1.592-1.781,2.254-2.785c0.469-0.866,0.878-1.757,1.145-2.711
			c0.867-3.102,1.213-6.116,1.41-9.318c0.098-1.551-0.033-3.082-0.39-4.594c-0.118-0.619-0.325-1.205-0.622-1.759
			c-0.142-0.328-0.283-0.657-0.41-0.992c-0.126-0.334-0.227-0.678-0.351-1.013C73.885,1.046,73.63,0.77,73.28,0.618
			c-0.115-0.048-0.223-0.063-0.317,0.048c-0.09,0.105-0.211,0.135-0.341,0.099c-0.119-0.032-0.241-0.067-0.348-0.125
			c-0.133-0.071-0.263-0.104-0.406-0.052c-0.148,0.054-0.295,0.113-0.443,0.169c-0.06,0.023-0.12,0.045-0.189,0.07
			c-0.045-0.067-0.072-0.132-0.12-0.173c-0.092-0.079-0.19-0.196-0.295-0.206c-0.464-0.046-0.941-0.098-1.306,0.304
			c-0.01,0.011-0.03,0.011-0.068,0.025c-0.07-0.047-0.148-0.109-0.234-0.155c-0.426-0.229-0.636-0.148-0.834,0.239
			c-0.044,0.135-0.107,0.261-0.187,0.379C67.521,2,67.197,3.299,66.806,4.21c-0.19,0.444-0.373,0.891-0.562,1.335
			c-0.354,0.833-0.59,1.704-0.74,2.591c-0.333,1.97-0.368,3.546-0.368,5.539c-0.057-0.037-0.075-0.08-0.089-0.124
			c-0.162-0.517-0.305-1.04-0.488-1.549c-0.229-0.634-0.492-1.257-0.74-1.884c-0.139-0.349-0.259-0.706-0.421-1.043
			c-0.45-0.938-0.911-1.872-1.381-2.8c-0.362-0.714-0.773-1.398-1.296-2.011c-0.485-0.635-0.966-1.273-1.442-1.916
			c-0.236-0.295-0.531-0.533-0.892-0.661c-0.291-0.102-0.781,0.032-0.984,0.257c-0.066,0.073-0.136,0.161-0.223,0.193
			c-0.203,0.076-0.327,0.216-0.421,0.399c-0.086,0.17-0.125,0.184-0.291,0.113c-0.187-0.08-0.373-0.132-0.582-0.094
			c-0.698,0.127-1.538-0.234-2.22,0.18c-0.262,0.159-0.261,0.16-0.478-0.044c-0.009-0.009-0.031-0.004-0.059-0.007
			c-0.037,0.045-0.071,0.105-0.121,0.145c-0.252,0.204-0.369,0.484-0.461,0.782c-0.07,0.224,0.174,1.234,0.198,1.476
			c0.028,0.616,0.105,1.226,0.231,1.829c0.05,0.774,0.153,1.54,0.288,2.304c0.289,1.725,0.824,3.367,1.605,4.924
			c0.822,1.171,1.407,2.43,1.754,3.775c-0.083-0.071-0.122-0.1-0.156-0.133c-0.489-0.465-0.967-0.942-1.469-1.392
			c-0.421-0.378-0.87-0.726-1.308-1.086c-0.451-0.37-0.904-0.735-1.354-1.107c-0.724-0.599-1.565-1.011-2.357-1.501
			c-0.629-0.39-1.266-0.768-1.891-1.165c-0.223-0.141-0.418-0.324-0.629-0.484c-0.12-0.091-0.242-0.178-0.366-0.262
			c-0.535-0.494-1.146-0.838-1.833-1.034c-0.112-0.035-0.197,0.021-0.288,0.101c-0.169,0.148-0.234,0.354-0.343,0.535
			c-0.134,0.221-0.116,0.329,0.065,0.507c0.056,0.055,0.103,0.118,0.175,0.203c-0.15,0.062-0.265,0.104-0.375,0.154
			c-0.204,0.186-0.287,0.402-0.25,0.652c-0.073-0.059-0.112-0.087-0.146-0.12c-0.345-0.335-0.707-0.4-1.139-0.195
			c-0.15,0.071-0.294,0.155-0.44,0.237c-0.196,0.11-0.346,0.26-0.392,0.49c-0.029,0.146-0.051,0.295-0.08,0.441
			c-0.104,0.115-0.188,0.243-0.252,0.384c-0.006,0.261,0.056,0.504,0.186,0.73c0.162,0.22,0.335,0.432,0.519,0.634
			c0.385,0.258,0.573,0.686,0.879,1.011c0.229,0.244,0.387,0.555,0.595,0.82c0.362,0.443,0.736,0.875,1.123,1.297
			c0.137,0.171,0.244,0.36,0.416,0.511c0.26,0.229,0.489,0.496,0.729,0.749c0.068,0.072,0.122,0.156,0.191,0.227
			c0.413,0.421,0.831,0.837,1.243,1.259c0.208,0.213,0.404,0.439,0.616,0.649c0.216,0.215,0.446,0.417,0.669,0.625
			c0.103,0.095,0.204,0.191,0.308,0.286c0.251,0.212,0.491,0.437,0.72,0.673c0.268,0.234,0.547,0.454,0.819,0.684
			c0.317,0.268,0.63,0.54,0.946,0.81c0.379,0.323,0.769,0.634,1.136,0.97c1.377,1.343,2.98,2.294,4.81,2.854
			c0.152,0.042,0.303,0.088,0.356,0.264c0.15-0.095,0.25-0.107,0.34-0.012c0.063,0.067,0.116,0.097,0.21,0.093
			c0.068-0.002,0.151,0.029,0.204,0.074c0.287,0.244,0.663,0.293,0.986,0.457c0.36,0.183,0.742,0.323,1.112,0.486
			c0.19-0.021,0.381-0.033,0.572-0.036c0.041,0.02,0.083,0.035,0.152,0.064c-0.014-0.115-0.023-0.199-0.033-0.282
			c0.138-0.093,0.408,0.001,0.364-0.288c0.062,0,0.116,0,0.199,0c-0.065-0.282-0.056-0.559,0.026-0.831
			c-0.032-0.432-0.061-0.866-0.129-1.293c-0.214-0.554-0.394-1.119-0.539-1.694c0.086,0.06,0.156,0.103,0.22,0.152
			c0.125,0.096,0.239,0.208,0.371,0.291c0.245,0.154,0.499,0.292,0.751,0.439C62.787,26.012,62.787,26.012,62.851,26.193
			c0.062,0.085,0.118,0.174,0.186,0.253c0.07,0.082,0.154,0.139,0.279,0.062c-0.065-0.07-0.142-0.119-0.17-0.188
			C63.084,26.17,62.982,26.157,62.851,26.193C62.854,26.066,62.982,26.157,62.851,26.193z M80.939,41.015
			c-0.074-0.053-0.155-0.098-0.22-0.16c-0.216-0.208-0.424-0.424-0.638-0.635c-0.062-0.061-0.131-0.115-0.21-0.184
			c-0.044,0.199-0.076,0.36-0.117,0.518c-0.024,0.093-0.005,0.17,0.068,0.223c0.1,0.071,0.202,0.155,0.316,0.188
			c0.15,0.043,0.248,0.129,0.325,0.252c0.369,0.579,0.797,1.11,1.283,1.594c0.104,0.104,0.203,0.214,0.304,0.322
			c-0.009,0.016-0.018,0.031-0.026,0.047c-0.116-0.032-0.233-0.064-0.349-0.096c-0.507-0.139-1.012-0.288-1.539-0.324
			c-0.22-0.015-0.413-0.05-0.501-0.29c-0.119,0.015-0.224,0.034-0.33,0.038c-0.072,0.003-0.148-0.007-0.217-0.028
			c-0.189-0.058-0.386-0.106-0.561-0.194c-0.195-0.098-0.357,0.007-0.53,0.039c-0.085,0.015-0.108,0.13-0.048,0.204
			c0.03,0.038,0.08,0.058,0.117,0.091c0.089,0.077,0.083,0.121-0.019,0.188c-0.535,0.352,0.153,1.008,0.046,1.425
			c-0.125-0.079-0.17-0.184-0.208-0.29c-0.062-0.259-0.154-0.505-0.276-0.739c-0.19,0.09-0.306,0.208-0.365,0.386
			c-0.093-0.134-0.2-0.111-0.319-0.067c-0.084,0.571,0.865,1.991,1.119,2.385c0.609,1.164,1.17,2.352,1.683,3.562
			c0.634,1.015,1.345,1.968,2.132,2.865c0.916,1.043,1.955,1.959,2.996,2.87c0.657,0.576,1.356,1.104,2.094,1.576
			c0.167,0.107,0.34,0.204,0.506,0.312c0.369,0.241,0.731,0.492,1.104,0.729c0.455,0.289,0.92,0.562,1.374,0.854
			c0.356,0.286,0.73,0.544,1.123,0.776c0.079,0.024,0.152,0.067,0.225,0.107c0.399,0.22,0.754,0.527,1.227,0.596
			c0.285,0.194,0.486-0.024,0.733-0.115c-0.035-0.049-0.048-0.07-0.063-0.088c-0.198-0.224-0.173-0.314,0.105-0.392
			c0.032-0.008,0.065-0.012,0.097-0.022c0.253-0.081,0.51-0.151,0.758-0.247c0.197-0.075,0.205-0.12,0.191-0.325
			c-0.009-0.121-0.002-0.243-0.002-0.359c0.044-0.017,0.068-0.035,0.09-0.032c0.297,0.043,0.506-0.112,0.708-0.299
			c0.218-0.201,0.364-0.214,0.632-0.073c0.333-0.033,0.52-0.232,0.559-0.598c0.059-0.144,0.141-0.304,0.124-0.446
			c-0.034-0.286-0.077-0.593-0.209-0.841c-0.19-0.356-0.384-0.719-0.608-1.053c-0.267-0.399-0.612-0.745-0.922-1.116
			c-0.042-0.05-0.074-0.108-0.109-0.165c-0.385-0.652-0.806-1.281-1.261-1.886c-0.684-1.095-1.488-2.091-2.383-3.017
			c-0.476-0.492-0.962-0.971-1.442-1.458c-0.052-0.053-0.138-0.093-0.123-0.208c0.061,0.009,0.11,0.013,0.157,0.024
			c0.796,0.184,1.589,0.379,2.388,0.549c1.192,0.254,2.402,0.384,3.618,0.45c0.564,0.031,1.134,0.04,1.692-0.08
			c0.316-0.067,0.641-0.127,0.937-0.252c0.6-0.231,1.138-0.557,1.614-0.979c0.059-0.051,0.1-0.131,0.128-0.205
			c0.102-0.203,0.157-0.416,0.167-0.638c-0.053-0.18,0.013-0.327,0.105-0.471c0.045-0.07,0.101-0.137,0.127-0.214
			c0.081-0.23,0.242-0.392,0.424-0.543c0.544-0.417,0.765-0.958,0.662-1.623c-0.039-0.112-0.014-0.206,0.104-0.274
			c0.188-0.109,0.27-0.274,0.244-0.498c-0.021-0.19-0.027-0.382-0.03-0.574c-0.01-0.566-0.566-1.127-0.981-1.463
			c-0.319-0.238-0.634-0.483-0.944-0.733c-0.529-0.333-1.063-0.656-1.661-0.854c-0.182-0.06-0.363-0.118-0.545-0.177
			c-0.538-0.175-1.069-0.377-1.615-0.52c-0.967-0.253-1.946-0.458-2.915-0.706c-0.842-0.215-1.69-0.379-2.552-0.483
			c-0.944-0.114-1.886-0.238-2.839-0.243c-1.11-0.006-2.216-0.011-3.308,0.248c-0.726,0.172-1.426,0.407-2.107,0.706
			c-0.469,0.206-0.937,0.415-1.424,0.631c0-0.066,0-0.116,0-0.166c-0.013-0.006-0.026-0.011-0.04-0.017
			c-0.054,0.089-0.108,0.178-0.174,0.286c-0.046-0.072-0.077-0.122-0.117-0.185c-0.136,0.121-0.217,0.274-0.386,0.327
			c-0.041,0.012-0.057,0.103-0.087,0.164c0.148,0.079,0.252,0.008,0.356-0.031c0.212-0.078,0.212-0.08,0.344-0.042
			c-0.05,0.02-0.087,0.046-0.126,0.049c-1.092,0.09-0.503,0.472-0.556,0.854c-0.036,0.256,0.097,0.417,0.267,0.584
			C80.472,40.974,80.684,41.208,80.939,41.015z M79.412,67.732c0.081-0.006,0.17-0.036,0.242-0.013
			c0.227,0.073,0.441,0.048,0.662-0.024c0.083-0.027,0.191-0.04,0.267-0.008c0.356,0.146,0.668,0.059,0.962-0.152
			c0.16-0.115,0.336-0.181,0.531-0.202c0.213,0.008,0.411-0.04,0.591-0.144c0.186-0.224,0.356-0.461,0.537-0.689
			c0.102-0.128,0.213-0.248,0.313-0.363c0.487,0.203,1.091-0.062,1.228-0.522c0.09-0.303,0.169-0.609,0.238-0.917
			c0.056-0.251,0.103-0.506,0.131-0.762c0.068-0.606-0.061-1.195-0.19-1.782c-0.135-0.61-0.283-1.218-0.416-1.829
			c-0.222-1.026-0.426-2.057-0.658-3.081c-0.174-0.769-0.516-1.478-0.847-2.188c-0.942-1.782-2.078-3.42-3.408-4.917
			c-0.501-0.603-0.998-1.209-1.503-1.808c-0.872-1.035-1.911-1.854-3.144-2.422c-0.416-0.192-0.826-0.397-1.239-0.595
			c-0.131-0.063-0.266-0.12-0.435-0.195c-0.01,0.291-0.226,0.355-0.387,0.463c-0.131,0.087-0.188,0.197-0.222,0.342
			c-0.068,0.292-0.002,0.559,0.131,0.813c0.059,0.113,0.071,0.206-0.048,0.278c-0.694,0.422,0.291,3.637,0.395,4.151
			c0.097,0.482,0.228,0.957,0.329,1.438c0.327,1.543,0.738,3.063,1.194,4.572c0.43,1.422,0.946,2.813,1.466,4.203
			c0.035,0.093,0.062,0.19,0.092,0.285c-0.019,0.006-0.038,0.012-0.057,0.018c-0.263-0.674-0.546-1.342-0.784-2.024
			c-0.334-0.96-0.645-1.929-0.948-2.9c-0.245-0.787-0.483-1.579-0.689-2.377c-0.681-2.64-0.974-4.476-1.329-7.219
			c-0.133-0.018-0.248-0.033-0.362-0.05c-0.402,0.239-0.554,0.641-0.455,1.204c-0.012,0.051-0.037,0.1-0.068,0.18
			c-0.061-0.101-0.111-0.168-0.144-0.242c-0.28-0.639-0.674-1.207-1.102-1.753c-0.047-0.06-0.109-0.108-0.167-0.165
			c-0.193,0.268,0.044,0.57-0.143,0.831c-0.114-0.106-0.144-0.237-0.2-0.354c-0.042-0.087-0.084-0.194-0.159-0.239
			c-0.139-0.084-0.165-0.2-0.161-0.338c0-0.021,0.021-0.042,0.033-0.064c0.074-0.005,0.145-0.011,0.256-0.019
			c-0.059-0.079-0.086-0.147-0.135-0.173c-0.086-0.044-0.185-0.082-0.28-0.087c-0.147-0.009-0.253-0.057-0.312-0.21
			c-0.026,0.06-0.047,0.116-0.035,0.162c0.016,0.058,0.097,0.102,0.029,0.166c-0.18,0.064-0.195-0.275-0.431-0.136
			c0.062,0.116,0.121,0.227,0.175,0.329c-0.646,0.355-0.46,0.665-0.825,1.275c-0.146,0.245-0.318,0.476-0.508,0.754
			c-0.007-0.093-0.015-0.132-0.013-0.17c0.034-0.521-0.026-1.034-0.145-1.539c-0.067-0.288-0.069-0.574-0.065-0.867
			c0.003-0.304,0.023-0.613-0.072-0.913c-0.042-0.136-0.107-0.225-0.251-0.237c-0.122-0.01-0.246-0.012-0.37-0.018
			c-0.055-0.065-0.111-0.132-0.17-0.203c-0.05,0.059-0.088,0.136-0.122,0.135c-0.151-0.006-0.211,0.109-0.304,0.188
			c-0.1,0.086-0.214,0.155-0.322,0.232c-0.033,0.023-0.08,0.043-0.092,0.075c-0.1,0.249-0.3,0.417-0.479,0.598
			c-0.231,0.234-0.354,0.555-0.625,0.754c-0.02,0.111-0.084,0.201-0.193,0.267c-0.31,0.211-0.627,0.411-0.944,0.611
			c-0.31,0.275-0.522,0.615-0.639,1.018c-0.041,0.083-0.103,0.155-0.156,0.232c-0.015-0.009-0.03-0.019-0.044-0.028
			c0.159-0.372,0.324-0.741,0.493-1.109c0.159-0.444,0.322-0.885,0.453-1.339c0.018-0.759,0.144-1.492,0.378-2.199
			c0.06,0.205,0.104,0.357,0.162,0.552c0.139-0.294,0.307-0.537,0.364-0.804c0.056-0.262-0.002-0.548-0.01-0.839
			c-0.233,0.092-0.166-0.121-0.22-0.211c-0.107-0.009-0.207-0.03-0.305-0.023c-0.167,0.01-0.306-0.047-0.389-0.18
			c-0.119-0.19-0.32-0.091-0.47-0.161c-0.184,0.142-0.413,0.109-0.62,0.16c-0.59,0.147-1.182,0.29-1.77,0.445
			c-0.621,0.164-1.244,0.323-1.855,0.517c-1.14,0.36-2.216,0.879-3.304,1.366c-0.097,0.043-0.194,0.083-0.292,0.125
			c0.117-0.114,0.246-0.204,0.371-0.298c0.445-0.337,0.892-0.673,1.333-1.015c0.654-0.507,1.271-1.06,1.786-1.708
			c-0.099,0.125,1.751-2.797,1.917-2.718c0.032-0.053,0.054-0.11,0.067-0.171c0.181-0.356,0.152-0.726,0.053-1.093
			c-0.066-0.247-0.226-0.317-0.478-0.244c-0.044,0.013-0.099,0.021-0.141,0.008c-0.168-0.055-0.319-0.132-0.425-0.288
			c-0.152-0.223-0.607-0.433-0.868-0.399c-0.16,0.021-0.245-0.05-0.319-0.173c0.348-0.284,0.323-0.419-0.075-0.407
			c-0.008-0.001-0.016-0.005-0.023-0.008c-0.125-0.239-0.125-0.241-0.391-0.16c-0.05,0.015-0.104,0.043-0.138,0.082
			c-0.104,0.115-0.223,0.165-0.374,0.113c-0.574-0.194-1.168-0.269-1.77-0.31c-0.049-0.003-0.097-0.027-0.183-0.051
			c0.457-0.198,0.868-0.376,1.28-0.554c0.214-0.092,0.429-0.173,0.667-0.198c0.222-0.023,0.438-0.108,0.667-0.06
			c0.029,0.006,0.064-0.012,0.097-0.02c0.137-0.032,0.273-0.069,0.412-0.093c0.137-0.048,0.212-0.132,0.226-0.255
			c0.089-0.263,0.247-0.338,0.509-0.246c0.035,0.012,0.078,0.005,0.117,0.002c0.187,0,0.37-0.029,0.548-0.087
			c0.05-0.043,0.122-0.062,0.183-0.092c-0.09-0.038-0.188-0.054-0.25-0.109c-0.26-0.247-0.39-0.531-0.39-0.852
			c-0.115-0.183-0.277-0.253-0.487-0.21c0.008-0.343-0.06-0.635-0.278-0.879c-0.06-0.067-0.099-0.154-0.147-0.232
			c-0.816-1.31-1.845-2.432-3.066-3.368c-1.854-1.421-3.872-2.523-6.052-3.306c-0.489-0.19-0.993-0.343-1.494-0.5
			c-0.723-0.227-1.444-0.462-2.176-0.657c-0.708-0.189-1.431-0.322-2.144-0.497c-0.562-0.139-1.133-0.212-1.708-0.213
			c-0.95-0.001-1.9,0.027-2.851,0.041c-0.233,0.003-0.471-0.03-0.699,0.002c-0.593,0.083-1.196,0.108-1.774,0.279
			c-0.128,0.038-0.245,0.131-0.354,0.216c-0.212,0.166-0.303,0.414-0.408,0.648c-0.06,0.132-0.073,0.268,0.025,0.401
			c0.182,0.245,0.354,0.497,0.529,0.748c0.007,0.011,0.001,0.032,0.001,0.047c-0.142,0.115-0.271,0.249-0.426,0.339
			c-0.201,0.117-0.317,0.287-0.407,0.489c-0.037,0.083-0.092,0.159-0.13,0.241c-0.066,0.142-0.142,0.282-0.183,0.431
			c-0.066,0.238-0.169,0.44-0.345,0.622c-0.17,0.176-0.363,0.377-0.427,0.601c-0.117,0.414-0.059,0.829,0.276,1.157
			c0.037,0.036,0.058,0.086,0.104,0.156c-0.148,0.017-0.263,0.031-0.377,0.042c-0.49,0.049-0.56,0.81-0.222,1.11
			c0.304,0.27,0.626,0.521,0.956,0.76c0.397,0.289,0.809,0.557,1.213,0.834c0.138,0.094,0.271,0.195,0.413,0.283
			c0.525,0.323,1.052,0.644,1.58,0.962c0.713,0.431,1.415,0.882,2.145,1.284c0.996,0.548,2.055,0.957,3.147,1.271
			c0.519,0.149,1.048,0.288,1.583,0.355c0.86,0.107,1.727,0.151,2.591,0.224c0.061,0.005,0.121,0.021,0.23,0.04
			c-0.075,0.039-0.101,0.058-0.129,0.067c-0.635,0.203-1.273,0.396-1.905,0.61c-0.899,0.305-1.798,0.613-2.687,0.947
			c-0.34,0.128-0.652,0.329-0.978,0.497c-0.089,0.046-0.174,0.1-0.266,0.137c-0.463,0.186-0.93,0.365-1.393,0.552
			c-0.611,0.246-1.21,0.522-1.832,0.738c-0.475,0.166-0.793,0.47-1.027,0.894c-0.21,0.381-0.192,0.734,0.078,1.068
			c0.122,0.15,0.036,0.872,0.343,0.871c0.249-0.001,0.344,0.137,0.384,0.341c0.047,0.245,0.208,0.389,0.409,0.506
			c0.074,0.044,0.146,0.093,0.256,0.164c-0.305,0.207-0.323,0.507-0.4,0.787c-0.104,0.381-0.166,0.766-0.155,1.16
			c0.011,0.427,0.15,0.798,0.514,1.06c0.055,0.04,0.122,0.118,0.118,0.175c-0.011,0.18,0.104,0.261,0.23,0.324
			c0.436,0.215,0.904,0.331,1.38,0.415c0.205,0.036,0.412,0.054,0.619,0.08c0.19,0.023,0.379,0.058,0.57,0.068
			c0.751,0.038,1.501,0.012,2.246-0.096c0.527-0.077,1.05-0.184,1.574-0.283c0.491-0.093,0.983-0.181,1.469-0.294
			c0.633-0.147,1.258-0.328,1.892-0.473c0.731-0.167,1.379-0.542,2.072-0.803c0.246-0.093,0.486-0.2,0.729-0.301
			c0.01,0.018,0.02,0.036,0.03,0.054c-0.078,0.055-0.156,0.109-0.232,0.166c-1.537,1.159-2.894,2.169-4.169,3.594
			c-0.455,0.509-0.895,1.03-1.279,1.596c-0.103,0.151-0.222,0.291-0.338,0.432c-0.284,0.347-0.579,0.686-0.854,1.04
			c-0.347,0.447-0.663,0.92-1.024,1.354c-0.3,0.359-0.614,0.703-0.787,1.146c-0.126,0.326-0.252,0.654-0.208,1.015
			c0.025,0.208,0.03,0.22,0.25,0.219c0.165-0.001,0.258,0.052,0.314,0.217c0.058,0.17,0.111,0.349,0.273,0.466
			c0.175,0.127,0.335,0.275,0.513,0.398c0.132,0.091,0.215,0.198,0.247,0.356c0.041,0.206,0.139,0.271,0.335,0.216
			c0.092-0.026,0.17-0.098,0.257-0.145c0.044-0.024,0.094-0.039,0.141-0.058c0.015,0.013,0.03,0.024,0.046,0.037
			c-0.062,0.178-0.119,0.356-0.185,0.532c-0.083,0.223-0.074,0.421,0.114,0.592c0.208,0.19,0.383,0.42,0.654,0.534
			c0.033,0.014,0.052,0.059,0.093,0.108c-0.075,0.095-0.144,0.187-0.218,0.273c-0.143,0.166-0.186,0.389-0.078,0.526
			c0.159,0.202,0.326,0.398,0.499,0.588c0.06,0.066,0.146,0.109,0.221,0.16c0.131,0.088,0.271,0.164,0.392,0.264
			c0.116,0.095,0.237,0.149,0.387,0.143c0.375-0.016,0.712-0.154,1.039-0.324c0.007-0.004,0.013-0.011,0.02-0.016
			c0.23-0.177,0.459-0.357,0.693-0.531c0.187-0.138,0.38-0.269,0.569-0.404c0.08-0.057,0.16-0.116,0.236-0.179
			c0.555-0.505,1.151-0.956,1.788-1.353c0.493-0.354,0.972-0.727,1.47-1.072c1.051-0.688,2.096-1.387,3.135-2.094
			c0.397-0.3,0.776-0.633,1.124-0.991c0.43-0.441,0.819-0.921,1.226-1.385c0.705-0.805,1.327-1.672,1.921-2.558
			c0.417-0.621,0.769-1.285,1.15-1.93c0.086-0.146,0.173-0.291,0.262-0.439c0.039,0.116,0.074,0.204,0.097,0.295
			c0.015,0.061,0.034,0.137,0.012,0.188c-0.086,0.197-0.175,0.396-0.289,0.578c-0.096,0.154-0.233,0.283-0.344,0.429
			c-0.302,0.398-0.606,0.795-0.896,1.202c-0.073,0.103-0.15,0.249-0.131,0.359c0.023,0.139-0.006,0.223-0.092,0.31
			c-0.539,0.543-0.821,1.216-1.237,1.85c-0.315,0.479-0.628,0.962-1.099,1.312c-0.073,0.054-0.122,0.141-0.196,0.191
			c-0.303,0.205-0.576,0.443-0.835,0.699c-0.017,0.017-0.046,0.019-0.066,0.033c-0.32,0.225-0.719,0.384-1.023,0.62
			c-0.156,0.122-0.325,0.229-0.496,0.328c-0.054,0.032-0.134,0.019-0.255,0.032c-0.402,0.798-0.685,1.641-0.85,2.529
			c-0.198,0.686-0.242,1.392-0.264,2.101c-0.013,0.424-0.025,0.85-0.05,1.274c-0.033,0.548-0.084,1.095,0.019,1.642
			c0.017,0.089,0.004,0.183,0.009,0.274c-0.009,0.489,0.059,0.968,0.204,1.436c0.095,0.348,0.336,0.458,0.646,0.358
			c0.091-0.029,0.169-0.102,0.252-0.155c0.046-0.029,0.091-0.059,0.132-0.085c0.028,0.023,0.047,0.031,0.052,0.044
			c0.129,0.362,0.315,0.69,0.551,0.997c0.132,0.172,0.286,0.256,0.49,0.235c0.217-0.023,0.415,0.017,0.602,0.123
			c0.177,0.101,0.351,0.206,0.548,0.322c0.218-0.084,0.476-0.177,0.727-0.284c0.082-0.035,0.154-0.099,0.22-0.162
			c0.294-0.281,0.589-0.562,0.873-0.854c0.102-0.104,0.174-0.238,0.259-0.36c0.028-0.041,0.049-0.086,0.075-0.128
			c0.221-0.352,0.45-0.699,0.663-1.056c0.409-0.685,0.787-1.383,1.314-1.999c1.51-1.765,2.1-3.944,3.201-5.921
			c0.016,0.005,0.032,0.011,0.048,0.016c-0.038,0.227-0.078,0.453-0.115,0.679c-0.061,0.377-0.143,0.752-0.176,1.132
			c-0.049,0.555-0.062,1.113-0.091,1.67c-0.015,0.291-0.046,0.581-0.047,0.871c0.029,0.977,0.027,1.954-0.004,2.93
			c0.021,0.215,0.026,0.432,0.035,0.647c0.014,0.349,0.054,0.7,0.032,1.047c-0.014,0.934,0.036,1.863,0.149,2.788
			c0.002,0.181,0.045,0.344,0.104,0.509c0.121,0.362,0.256,0.719,0.406,1.071c0.119,0.262,0.352,0.466,0.381,0.777
			c0.004,0.043,0.106,0.106,0.166,0.11c0.401-0.27,0.388-0.547-0.04-0.832c-0.468-0.41-0.591-0.992-0.624-1.593
			c-0.02-0.374,0.014-0.751-0.02-1.123c-0.024-0.881-0.072-1.76-0.141-2.638c-0.005-0.242-0.012-0.483-0.013-0.725
			c0-0.069,0.017-0.139,0.026-0.208c0.02,0,0.039,0,0.058,0.001c0.083,0.436,0.055,0.883,0.091,1.324
			c0.11,1.318,0.023,2.777,0.377,4.063c0.016-0.074,0.02-0.147,0.016-0.219c-0.133-1.512-0.19-3.026-0.169-4.543
			c-0.099-0.31-0.058-0.578,0.125-0.805c0.085,0.114,0.073,0.251,0.082,0.379c0.063,0.89,0.132,1.779,0.18,2.669
			c0.026,0.473,0.046,0.951,0.01,1.421c-0.038,0.471-0.031,0.929,0.067,1.391c0.055,0.261,0.126,0.499,0.346,0.669
			c0.12,0.171,0.17,0.355,0.151,0.552c0.06,0.023,0.114,0.042,0.166,0.066c0.293,0.138,0.596,0.262,0.874,0.426
			c0.145,0.085,0.265,0.111,0.42,0.065c0.126-0.037,0.259-0.064,0.391-0.068c0.207-0.007,0.218,0.004,0.261,0.211
			c0.028,0.135,0.096,0.181,0.228,0.163c0.132-0.019,0.265-0.037,0.398-0.041c0.252-0.008,0.393-0.149,0.483-0.368
			c0.182-0.349,0.353-0.704,0.515-1.062c-0.063-0.026-0.103-0.042-0.163-0.067c0.124-0.188,0.265-0.349,0.347-0.536
			c0.332-0.754,0.654-1.513,0.961-2.277c0.351-0.875,0.639-1.771,0.885-2.682c0.264-0.802,0.461-1.619,0.592-2.451
			c0.092-0.601,0.221-1.201,0.254-1.806c-0.085-1.011-0.061-2.016,0.073-3.012c0.033,0.082,0.052,0.126,0.068,0.172
			c0.097,0.284,0.183,0.572,0.291,0.852c0.396,1.026,0.764,2.063,1.264,3.045c0.291,0.571,0.565,1.153,0.895,1.702
			c0.537,0.88,1.133,1.718,1.788,2.513c0.208,0.315,0.468,0.567,0.782,0.756c0.05,0.028,0.112,0.039,0.155,0.074
			c0.313,0.362,0.701,0.61,1.163,0.745C79.523,67.747,79.481,67.675,79.412,67.732z M78.007,28.866
			c0.139-0.059,0.25-0.104,0.361-0.153c0.256,0.099,0.49,0.239,0.701,0.419c0.228-0.05,0.454-0.104,0.68-0.159
			c1.684-0.416,3.236-1.125,4.684-2.077c0.977-0.643,1.917-1.337,2.763-2.142c2.833-2.691,5.338-5.534,7.194-8.962
			c0.063-0.117,0.13-0.24,0.152-0.368c0.044-0.26,0.088-0.526,0.08-0.789c-0.008-0.248-0.212-0.403-0.388-0.555
			c-0.087-0.075-0.193-0.128-0.291-0.19c-0.126-0.081-0.208,0.062-0.27,0.069c-0.199-0.202-0.349-0.414-0.552-0.543
			c-0.205-0.131-0.462-0.181-0.728-0.277c0.077-0.065,0.13-0.115,0.188-0.158c0.263-0.198,0.313-0.373,0.185-0.67
			c-0.026-0.061-0.061-0.118-0.094-0.175c-0.186-0.323-0.372-0.646-0.56-0.974c0.066-0.055,0.162-0.093,0.183-0.157
			c0.048-0.146,0.027-0.291-0.095-0.414c-0.11-0.11-0.223-0.163-0.379-0.115c-0.117,0.035-0.241,0.052-0.362,0.075
			c-0.057,0.011-0.121,0.003-0.172,0.025c-0.302,0.128-0.578,0.322-0.918,0.355c-0.042,0.004-0.08,0.056-0.121,0.084
			c-0.068,0.047-0.134,0.1-0.208,0.137c-0.479,0.232-0.953,0.473-1.422,0.724c-0.575,0.361-1.066,0.827-1.536,1.311
			c-0.417,0.43-0.803,0.893-1.204,1.338c-0.477,0.528-0.788,1.14-1.031,1.808c-0.213,0.584-0.478,1.16-0.795,1.693
			c-0.365,0.613-0.769,1.208-1.278,1.722c-0.501,0.661-1.069,1.25-1.704,1.768c0.208-0.289,0.438-0.549,0.665-0.814
			c0.384-0.45,0.78-0.891,1.144-1.357c0.353-0.453,0.712-0.908,0.995-1.405c1.246-2.187,2.012-4.653,2.682-7.062
			c0.169-0.608,0.35-1.222,0.357-1.861c0.005-0.561,0.049-1.113,0.169-1.662c0.062-0.283,0.075-0.577-0.053-0.856
			c-0.103-0.227-0.184-0.464-0.302-0.682s-0.303-0.39-0.558-0.424c-0.226-0.031-0.46-0.083-0.684,0.045
			c-0.118,0.067-0.236,0.037-0.353-0.037c-0.132-0.084-0.275-0.148-0.413-0.222c-0.051-0.028-0.109-0.05-0.15-0.089
			c-0.133-0.125-0.279-0.243-0.387-0.388c-0.285-0.38-0.643-0.645-1.1-0.778c-0.167-0.049-0.309-0.405-0.505-0.496
			c-0.458-0.074-0.828,0.067-1.111,0.423c-0.403,0.358-0.806,0.717-1.201,1.085c-0.377,0.351-0.764,0.688-1.089,1.098
			c-0.838,1.043-1.575,2.152-2.21,3.324c-0.781,1.493-0.58,2.209-0.873,4.056c-0.097,0.609-0.183,1.22-0.292,1.827
			c-0.147,0.812-0.349,1.607-0.62,2.392c-0.568,1.244-1.043,2.52-1.424,3.829c-0.043,0.86,0.042,1.708,0.255,2.545
			c-0.066,0.669,0.101,1.257,0.5,1.764c0.029-0.56-0.223-1.029-0.221-1.543c0.068,0.053,0.119,0.093,0.204,0.159
			c-0.013-0.12-0.021-0.191-0.031-0.279c0.074,0.017,0.129,0.029,0.225,0.05c-0.082-0.158-0.165-0.291-0.063-0.42
			c0.124-0.159,0.141-0.353,0.204-0.532c0.045-0.125,0.086-0.253,0.129-0.379c0.02,0.125-0.006,0.238-0.015,0.353
			c-0.013,0.172-0.042,0.351-0.01,0.517c0.038,0.337-0.017,0.66-0.164,0.966c-0.044,0.202-0.089,0.409-0.088,0.613
			c-0.139,0.509-0.038,0.929,0.303,1.257c0.217,0.086,0.431,0.064,0.655,0.046c0.436-0.034,1.532-1.397,1.602-1.566
			c0.023-0.057,0.09-0.097,0.138-0.143c0.083-0.081,0.167-0.163,0.253-0.241c0.333-0.302,0.655-0.619,1.003-0.902
			c0.511-0.416,1.044-0.803,1.487-1.296c0.019-0.021,0.05-0.028,0.08-0.044c0.007,0.032,0.019,0.052,0.013,0.062
			c-0.203,0.372-0.407,0.744-0.614,1.114c-0.04,0.071-0.099,0.13-0.145,0.199c-0.188,0.281-0.375,0.564-0.562,0.846
			c-0.018,0.027-0.052,0.05-0.058,0.079c-0.25,0.427-0.508,0.849-0.772,1.267c-0.048,0.389-0.233,0.606-0.554,0.653
			c-0.06,0.24-0.097,0.483-0.111,0.729c0.087,0.267,0.091,0.536,0.071,0.794C77.723,28.315,77.902,28.561,78.007,28.866
			C78.146,28.808,77.888,28.659,78.007,28.866z M102.006,29.191c0.118-0.236,0.23-0.445,0.329-0.662
			c0.098-0.214,0.047-0.52-0.131-0.671c-0.336-0.286-0.675-0.567-1.083-0.754c-0.581-0.267-1.198-0.411-1.817-0.532
			c-0.903-0.176-1.823-0.193-2.741-0.18c-0.341,0.005-0.689,0.009-1.021,0.078c-0.988,0.205-1.964,0.455-2.908,0.821
			c-0.543,0.211-1.088,0.417-1.637,0.613c-0.587,0.209-1.179,0.405-1.77,0.604c-0.158,0.053-0.319,0.097-0.481,0.135
			c-0.681,0.159-1.366,0.301-2.042,0.475c-0.467,0.12-0.931,0.261-1.381,0.433c-1.719,0.655-2.775,1.87-4.278,2.794
			c-0.287,0.177-0.43,0.479-0.68,0.682c-0.06,0.072-0.029,0.14,0.091,0.203c0.069-0.014,0.136-0.057,0.197-0.098
			c0.57-0.523,1.224-0.882,1.964-1.075c-0.034,0.039-0.074,0.063-0.116,0.087c-0.461,0.267-0.925,0.53-1.383,0.801
			c-0.128,0.076-0.245,0.173-0.359,0.27c-0.048,0.041-0.107,0.107-0.105,0.16c0.011,0.307-0.191,0.653,0.163,0.883
			c-0.11,0.219-0.116,0.259,0.042,0.345c0.165,0.089,0.233,0.196,0.147,0.4c0.384,0.11,0.776,0.187,1.175,0.229
			c0.123,0.05,0.254,0.079,0.383,0.112c0.877,0.221,1.771,0.324,2.671,0.35c0.899,0.026,1.799,0.026,2.698,0.007
			c0.666-0.014,1.333-0.052,1.995-0.123c0.993-0.107,1.984-0.241,2.959-0.469c1.845-0.365,3.643-0.885,5.395-1.559
			c0.518-0.201,1.019-0.448,1.518-0.693c0.643-0.333,1.264-0.702,1.863-1.107c0.186-0.131,0.359-0.143,0.559-0.053
			c-0.008,0.064-0.015,0.118-0.027,0.218c0.106-0.077,0.179-0.127,0.249-0.181c0.079-0.061,0.154-0.127,0.234-0.187
			c0.316-0.145,0.549-0.366,0.701-0.663c-0.091,0.009-0.162,0.039-0.193,0.015c-0.128-0.097-0.244-0.21-0.369-0.321
			c0.035-0.022,0.05-0.04,0.062-0.039c0.258,0.029,0.316-0.013,0.387-0.254c0.125-0.373,0.051-0.606-0.22-0.7
			c-0.338-0.053-0.655-0.168-0.95-0.347C102.065,29.236,102.038,29.209,102.006,29.191
			C102.124,28.955,102.038,29.209,102.006,29.191z M72.203,46.022c-0.011-0.004-0.022-0.009-0.033-0.014
			c0.034-0.119,0.014-0.224-0.06-0.312c-0.042-0.012-0.103-0.004-0.136,0.021c-0.277,0.209-0.225,0.855-0.047,1.118
			c0.165-0.018,0.165-0.018,0.486-0.233c0.022-0.249,0.053-0.497,0.093-0.743c0.014-0.09,0.04-0.184-0.114-0.216
			C72.329,45.769,72.266,45.896,72.203,46.022C72.191,46.018,72.266,45.896,72.203,46.022z M63.098,41.986
			c0.026-0.032,0.053-0.056,0.049-0.064c-0.012-0.026-0.037-0.046-0.056-0.069C63.03,41.888,63.032,41.933,63.098,41.986
			C63.124,41.954,63.076,41.947,63.098,41.986z M73.932,25.005c0.015-0.019,0.03-0.037,0.045-0.055
			c-0.037-0.062-0.08-0.113-0.228-0.104C73.836,24.921,73.884,24.963,73.932,25.005C73.947,24.987,73.884,24.963,73.932,25.005z
			 M59.223,53.669c0.021,0.037,0.043,0.037,0.064-0.002c-0.014-0.012-0.027-0.024-0.041-0.037
			C59.238,53.644,59.23,53.657,59.223,53.669C59.233,53.68,59.23,53.657,59.223,53.669z M73.951,45.189
			c-0.042,0.004-0.05,0.024-0.027,0.06c0.018-0.007,0.036-0.014,0.053-0.021C73.968,45.215,73.96,45.203,73.951,45.189
			C73.938,45.195,73.96,45.203,73.951,45.189z M60.845,37.75c-0.008-0.009-0.015-0.018-0.023-0.027
			c-0.019,0.016-0.015,0.03,0.01,0.044C60.836,37.762,60.841,37.756,60.845,37.75C60.837,37.741,60.841,37.756,60.845,37.75z
			 M62.85,26.194c0.132-0.037,0.234-0.024,0.296,0.126c0.029,0.068,0.105,0.118,0.17,0.188c-0.125,0.078-0.209,0.02-0.279-0.062
			C63.017,26.268,62.955,26.183,62.85,26.194z M62.852,26.194c-0.064-0.182-0.064-0.182,0.011-0.376
			c0-0.001-0.003-0.005-0.003-0.005C62.856,25.938,62.854,26.066,62.852,26.194C62.85,26.194,62.852,26.194,62.852,26.194z
			 M59.223,53.669c0.008-0.013,0.016-0.026,0.023-0.039c0.014,0.012,0.027,0.024,0.041,0.037
			C59.266,53.706,59.244,53.707,59.223,53.669C59.23,53.657,59.233,53.68,59.223,53.669z M73.952,45.189
			c0.008,0.013,0.017,0.026,0.025,0.039c-0.018,0.007-0.036,0.014-0.053,0.021C73.901,45.213,73.91,45.194,73.952,45.189
			C73.96,45.203,73.938,45.195,73.952,45.189z M67.305,52.326c0.004-0.071,0-0.144,0.014-0.213c0.262-1.545,0.63-3.064,1.104-4.557
			c0.053-0.172,0.149-0.333,0.234-0.495c0.032-0.061,0.087-0.11,0.179-0.148c0.013,0.086-0.002,0.167-0.045,0.242
			c-0.291,0.53-0.432,1.114-0.615,1.683c-0.251,0.784-0.419,1.59-0.591,2.394c-0.078,0.364-0.154,0.729-0.231,1.093
			C67.338,52.326,67.322,52.326,67.305,52.326C67.31,52.255,67.322,52.326,67.305,52.326z M79.418,67.727
			c-0.165,0.001-0.178-0.152-0.256-0.259c-0.049,0.016-0.1,0.032-0.148,0.048c-0.018-0.012-0.038-0.019-0.044-0.032
			c-0.206-0.423-0.565-0.689-0.945-0.937c-0.196-0.128-0.362-0.287-0.505-0.478c-0.266-0.282-0.508-0.583-0.727-0.9
			c0.014-0.012,0.028-0.025,0.042-0.037c0.215,0.227,0.434,0.451,0.644,0.683c0.157,0.172,0.292,0.364,0.456,0.53
			c0.127,0.129,0.28,0.233,0.426,0.342c0.145,0.108,0.294,0.209,0.48,0.34c-0.017-0.112-0.027-0.181-0.038-0.249
			c0.226,0.304,0.438,0.616,0.608,0.954C79.412,67.732,79.418,67.727,79.418,67.727z M65.244,62.119
			c-0.242-1.069-0.197-2.14,0.136-3.213c0.005-0.041,0.016-0.082,0.054-0.122c0.01,0.274-0.003,0.548-0.04,0.821
			c-0.055,0.437-0.115,0.872-0.094,1.317C65.363,61.33,65.345,61.729,65.244,62.119C65.108,61.764,65.263,62.042,65.244,62.119z
			 M54.484,64.126c0.146,0.031,0.132,0.126,0.149,0.204c0.009,0.488,0.136,0.931,0.38,1.331c0.145,0.204,0.12,0.411,0.013,0.613
			c-0.057,0.107-0.143,0.198-0.225,0.309c-0.08-0.099-0.038-0.19-0.009-0.269c0.148-0.417,0.034-0.806-0.13-1.185
			c-0.118-0.272-0.194-0.549-0.199-0.845C54.462,64.237,54.475,64.19,54.484,64.126C54.631,64.157,54.475,64.19,54.484,64.126z
			 M47.438,53.389c-0.898,0.861-1.86,1.648-2.832,2.425c0.18-0.287,0.437-0.495,0.69-0.708c0.46-0.385,0.916-0.774,1.376-1.159
			c0.241-0.203,0.486-0.4,0.73-0.6C47.414,53.361,47.426,53.375,47.438,53.389C46.54,54.25,47.426,53.375,47.438,53.389z
			 M58.312,40.109c-0.058-0.141,0.001-0.238,0.062-0.324c0.148-0.209,0.31-0.41,0.46-0.618c0.035-0.048,0.037-0.123,0.076-0.165
			c0.033-0.034,0.1-0.053,0.148-0.046c0.022,0.002,0.059,0.087,0.049,0.123c-0.116,0.409-0.333,0.752-0.686,1.001
			C58.396,40.097,58.359,40.097,58.312,40.109C58.255,39.968,58.359,40.097,58.312,40.109z M65.189,62.93
			c0.141,0.21,0.075,0.704-0.126,1.053C65.01,63.619,65.067,63.093,65.189,62.93z M34.219,29.987
			c0.211,0.159,0.24,0.302,0.112,0.545c-0.14-0.098-0.15-0.15-0.107-0.551C34.224,29.981,34.219,29.987,34.219,29.987z
			 M66.834,54.585c-0.029,0.305-0.06,0.612-0.188,0.899C66.632,55.17,66.77,54.886,66.834,54.585z M43.696,56.172
			c0.078,0.161,0.11,0.312-0.09,0.416C43.636,56.449,43.666,56.311,43.696,56.172z M70.186,46.615
			c0.026,0.036,0.053,0.072,0.079,0.107c-0.013,0.01-0.027,0.02-0.041,0.03c-0.025-0.037-0.051-0.073-0.076-0.11
			C70.161,46.633,70.173,46.624,70.186,46.615C70.212,46.651,70.173,46.624,70.186,46.615z M65.213,62.42
			c-0.026,0.021-0.042,0.034-0.057,0.047c-0.042-0.031-0.042-0.058-0.003-0.081C65.17,62.39,65.186,62.404,65.213,62.42
			C65.187,62.441,65.186,62.404,65.213,62.42z M76.436,64.643c0.028,0.026,0.056,0.052,0.083,0.078
			c-0.022,0.022-0.044,0.044-0.066,0.066c-0.023-0.03-0.047-0.06-0.071-0.09C76.399,64.679,76.417,64.661,76.436,64.643
			C76.463,64.668,76.417,64.661,76.436,64.643z M51.188,22.825c-0.161-0.131-0.322-0.262-0.481-0.394
			c-0.436-0.362-0.872-0.723-1.306-1.088c-0.744-0.625-1.34-1.389-1.977-2.116c-1.076-1.228-1.763-2.663-2.957-3.786
			c-0.2-0.188-0.397-0.378-0.597-0.567c-0.242-0.229-0.481-0.461-0.729-0.683c-0.3-0.187-0.496-0.434-0.589-0.74
			c0.137-0.018,0.19,0.082,0.256,0.144c0.303,0.285,0.595,0.583,0.903,0.862c0.555,0.503,1.133,0.982,1.674,1.5
			c0.799,0.861,1.53,1.779,2.19,2.752c0.49,0.6,1.029,1.158,1.535,1.745c0.322,0.372,0.685,0.707,1.001,1.079
			c0.495,0.338,0.865,0.761,1.111,1.268C51.211,22.809,51.2,22.817,51.188,22.825C51.027,22.694,51.2,22.817,51.188,22.825z
			 M53.076,3.008c0.021,0.067,0.059,0.119,0.046,0.151c-0.083,0.216,0.017,0.393,0.118,0.564c0.226,0.412,0.307,0.849,0.245,1.31
			c-0.09,0-0.15,0-0.225,0c0.034,0.77-0.029,1.53,0.253,2.257c0.086,0.222,0.136,0.457,0.163,0.708
			c-0.02-0.018-0.049-0.032-0.059-0.055c-0.442-1.145-0.603-2.306-0.484-3.484c-0.037-0.331-0.119-0.648-0.246-0.952
			C52.817,3.312,52.861,3.151,53.076,3.008C53.097,3.075,52.861,3.151,53.076,3.008z M68.576,19.386
			c0.256,1.588,0.461,3.172,0.885,4.726c0.013,0.046,0.025,0.092,0.038,0.138c-0.015,0.006-0.03,0.012-0.045,0.019
			c-0.054-0.132-0.126-0.261-0.159-0.398c-0.095-0.396-0.176-0.795-0.261-1.193c-0.092-0.431-0.203-0.859-0.267-1.294
			c-0.092-0.625-0.15-1.254-0.221-1.882c-0.004-0.04,0-0.081,0-0.121C68.555,19.381,68.565,19.384,68.576,19.386
			C68.665,19.936,68.565,19.384,68.576,19.386z M54.314,8.406c0.185,0.162,0.245,0.395,0.316,0.609
			c0.504,1.205,0.964,2.426,1.379,3.663c0.006,0.02-0.004,0.045-0.012,0.109c-0.044-0.067-0.075-0.102-0.092-0.142
			c-0.169-0.406-0.342-0.812-0.503-1.221c-0.246-0.626-0.492-1.252-0.723-1.884C54.639,8.435,54.518,8.058,54.314,8.406z
			 M56.175,13.169c0.586,1.095,1.065,2.24,1.566,3.374C57.187,15.433,56.65,14.315,56.175,13.169z M54.919,11.701
			c-0.195-0.375-0.364-0.762-0.429-1.187C54.732,10.871,54.842,11.279,54.919,11.701z M55.581,13.299
			c-0.229-0.419-0.413-0.843-0.56-1.282C55.493,12.403,55.68,12.831,55.581,13.299C55.351,12.879,55.587,13.267,55.581,13.299z
			 M62.922,25.074c0.267,0.21,0.535,0.419,0.802,0.629c-0.014,0.017-0.027,0.034-0.04,0.051c-0.281-0.196-0.579-0.369-0.812-0.626
			C62.889,25.11,62.906,25.092,62.922,25.074C63.189,25.284,62.906,25.092,62.922,25.074z M54.317,8.4
			c-0.167-0.274-0.363-0.868-0.375-1.128c0.007,0.003,0.019,0.003,0.021,0.008c0.068,0.115,0.339,0.988,0.35,1.125
			C54.314,8.406,54.317,8.4,54.317,8.4z M56.218,14.652c-0.055-0.221-0.135-0.43-0.294-0.6
			C56.076,13.879,56.174,14.079,56.218,14.652z M68.243,1.994c0.125-0.163,0.174-0.354,0.203-0.553
			C68.556,1.606,68.488,1.791,68.243,1.994z M68.45,1.447c0.063-0.186,0.126-0.372,0.189-0.559c0.058,0.232-0.051,0.398-0.194,0.552
			C68.446,1.441,68.45,1.447,68.45,1.447z M58.455,17.943c-0.073-0.173-0.126-0.357-0.284-0.48
			C58.268,17.296,58.362,17.456,58.455,17.943z M59.623,20.127c0.078,0.137,0.155,0.274,0.233,0.411
			c-0.02,0.011-0.039,0.021-0.059,0.033c-0.076-0.139-0.151-0.277-0.227-0.415C59.588,20.146,59.605,20.137,59.623,20.127
			C59.7,20.264,59.605,20.137,59.623,20.127z M69.664,24.523c0.113,0.071,0.155,0.172,0.081,0.322
			c-0.044-0.097-0.088-0.194-0.132-0.292C69.63,24.543,69.647,24.533,69.664,24.523C69.777,24.594,69.647,24.533,69.664,24.523z
			 M62.446,24.586c0.233,0.162,0.234,0.163,0.307,0.356C62.586,24.86,62.528,24.713,62.446,24.586z M55.929,14.045
			c-0.091-0.087-0.15-0.189-0.15-0.319c0.095,0.087,0.135,0.199,0.145,0.325C55.924,14.052,55.929,14.045,55.929,14.045z
			 M53.726,8.409c-0.007-0.06-0.014-0.12-0.021-0.181C53.8,8.279,53.818,8.338,53.726,8.409z M53.896,8.668
			c0.024,0.067,0.048,0.135,0.072,0.203C53.854,8.835,53.836,8.766,53.896,8.668z M58.174,17.457
			c-0.059-0.101-0.117-0.201-0.175-0.302c0.019-0.009,0.039-0.018,0.058-0.027c0.038,0.111,0.076,0.222,0.114,0.334
			C58.171,17.463,58.174,17.457,58.174,17.457z M58.921,18.892c-0.021-0.031-0.042-0.062-0.062-0.093
			c0.009-0.008,0.018-0.015,0.027-0.022c0.024,0.029,0.047,0.059,0.07,0.089C58.944,18.874,58.933,18.883,58.921,18.892
			C58.9,18.861,58.933,18.883,58.921,18.892z M66.46,24.259c-0.008,0.002-0.015,0.005-0.022,0.007
			c-0.022-0.031-0.019-0.048,0.011-0.05C66.452,24.23,66.456,24.245,66.46,24.259C66.452,24.261,66.456,24.245,66.46,24.259z
			 M84.804,53.516c-0.105-0.079-0.227-0.143-0.314-0.238c-0.408-0.439-0.822-0.875-1.205-1.334
			c-0.634-0.762-1.245-1.542-1.866-2.314c0.824,1.027-1.292-1.733-0.692-0.98c0.653,0.818,1.291,1.648,1.959,2.454
			C79.378,47.115,84.515,53.192,84.804,53.516z M90.824,58.072c0.211,0.146,0.432,0.279,0.631,0.439
			c0.356,0.286,0.706,0.581,1.044,0.888c0.183,0.166,0.338,0.362,0.524,0.566c-0.225,0.104-0.371-0.052-0.522-0.109
			c-0.166-0.062-0.308-0.189-0.45-0.305c0.116-0.014,0.182,0.076,0.269,0.122c0.085,0.045,0.171,0.091,0.313,0.166
			c-0.036-0.11-0.04-0.169-0.069-0.206c-0.073-0.09-0.153-0.176-0.241-0.252C91.786,58.918,91.295,58.536,90.824,58.072z
			 M78.148,44.429c0.549,1.004,1.099,2.009,1.666,3.046c-0.156-0.071-0.212-0.194-0.275-0.301c-0.181-0.309-0.354-0.623-0.526-0.937
			c-0.248-0.453-0.494-0.907-0.737-1.363c-0.072-0.136-0.13-0.28-0.195-0.42C78.103,44.446,78.125,44.438,78.148,44.429
			C78.697,45.434,78.125,44.438,78.148,44.429z M84.798,53.521c0.03,0.014,0.066,0.022,0.089,0.043
			c0.352,0.325,0.703,0.653,1.029,1.012c-0.066-0.051-0.137-0.098-0.198-0.154c-0.27-0.247-0.537-0.494-0.802-0.745
			c-0.047-0.044-0.075-0.108-0.112-0.162C84.804,53.516,84.798,53.521,84.798,53.521z M91.243,59.059
			c0.039,0.03,0.089,0.046,0.135,0.068c-0.255-0.292-0.549-0.518-0.902-0.66C90.731,58.263,90.986,58.46,91.243,59.059z
			 M87.619,55.756c-0.013,0.018-0.026,0.035-0.04,0.053c0.206,0.14,0.411,0.28,0.617,0.42
			C87.995,56.381,87.803,56.224,87.619,55.756z M80.6,48.53c-0.125-0.12-0.233-0.251-0.302-0.409
			c0.015-0.009,0.029-0.019,0.044-0.028c0.084,0.147,0.169,0.295,0.253,0.444C80.595,48.537,80.6,48.53,80.6,48.53z M90.831,58.067
			c-0.177-0.027-0.281-0.156-0.391-0.275c0.168,0.038,0.272,0.164,0.384,0.28C90.824,58.072,90.831,58.067,90.831,58.067z
			 M88.197,56.229c1.041,0.82-0.005,0.005-0.007,0.005C88.189,56.233,88.196,56.229,88.197,56.229z M89.519,58.045
			c0.124,0.059,0.219,0.104,0.315,0.149C89.725,58.238,89.62,58.188,89.519,58.045z M87.114,55.408
			c0.06,0.045,0.12,0.091,0.179,0.137c-0.007,0.011-0.015,0.021-0.022,0.032c-0.062-0.041-0.124-0.083-0.187-0.124
			C87.094,55.438,87.104,55.422,87.114,55.408C87.173,55.453,87.104,55.422,87.114,55.408z M91.762,59.375
			c-0.04-0.027-0.079-0.054-0.119-0.082c0.006-0.009,0.012-0.018,0.018-0.027c0.044,0.026,0.087,0.053,0.131,0.08
			C91.782,59.356,91.771,59.366,91.762,59.375C91.722,59.348,91.771,59.366,91.762,59.375z M88.581,56.54
			c0.082,0.027,0.164,0.055,0.245,0.082c-0.006,0.014-0.012,0.028-0.018,0.042c-0.073-0.042-0.146-0.085-0.22-0.127
			C88.586,56.537,88.581,56.54,88.581,56.54z M86.511,54.972c-0.011,0.011-0.022,0.021-0.033,0.032
			c0.056,0.042,0.11,0.083,0.166,0.125C86.586,55.173,86.542,55.122,86.511,54.972z M79.379,42.566
			c0.125,0.034,0.137,0.075-0.009,0.058C79.373,42.605,79.376,42.586,79.379,42.566C79.412,42.575,79.376,42.586,79.379,42.566z
			 M86.638,55.133c0.048,0.019,0.097,0.037,0.145,0.056c-0.006,0.01-0.012,0.021-0.018,0.031c-0.04-0.031-0.08-0.062-0.12-0.092
			C86.644,55.128,86.638,55.133,86.638,55.133z M86.186,54.764c-0.013-0.001-0.027,0-0.04-0.004
			c-0.006-0.002-0.01-0.011-0.015-0.018c0.01-0.005,0.024-0.017,0.028-0.014C86.17,54.737,86.178,54.751,86.186,54.764
			C86.173,54.763,86.178,54.751,86.186,54.764z M80.089,47.843c-0.038-0.011-0.044-0.029-0.018-0.054
			C80.092,47.8,80.098,47.818,80.089,47.843C80.078,47.835,80.089,47.83,80.089,47.843z M89.785,57.327
			c-0.04,0.002-0.057-0.016-0.052-0.054C89.773,57.271,89.79,57.289,89.785,57.327C89.77,57.323,89.783,57.312,89.785,57.327z
			 M90.152,57.563c-0.019,0.009-0.034,0.021-0.042,0.019c-0.014-0.005-0.028-0.019-0.034-0.033c-0.003-0.007,0.013-0.021,0.02-0.032
			C90.114,57.532,90.132,57.546,90.152,57.563C90.133,57.572,90.132,57.546,90.152,57.563z M89.829,58.196c0.045,0,0.091,0,0.136,0
			c-0.002,0.012-0.004,0.023-0.006,0.035c-0.041-0.013-0.082-0.026-0.124-0.038C89.834,58.194,89.829,58.196,89.829,58.196z
			 M90.482,58.462c-0.045-0.004-0.09-0.008-0.136-0.013c0.004-0.013,0.008-0.025,0.012-0.039c0.039,0.019,0.078,0.038,0.117,0.056
			C90.476,58.467,90.482,58.462,90.482,58.462z M80.933,41.02c0.048,0.019,0.096,0.039,0.143,0.058
			c-0.007,0.011-0.013,0.021-0.02,0.033c-0.039-0.032-0.077-0.064-0.116-0.096C80.939,41.015,80.933,41.02,80.933,41.02z
			 M80.047,24.355c0.165-0.198,0.336-0.392,0.495-0.595c0.323-0.413,0.645-0.829,0.96-1.248c0.769-1.047,1.547-2.086,2.336-3.118
			c0.516-0.707,1.008-1.431,1.523-2.137c0.687-0.976,1.453-1.885,2.298-2.726c0.02-0.021,0.052-0.029,0.103-0.02
			c-0.024,0.038-0.044,0.08-0.072,0.114c-0.467,0.565-0.948,1.119-1.398,1.697c-0.347,0.446-0.657,0.923-0.982,1.386
			c-1.12,1.591-2.405,3.082-3.493,4.687c-0.037,0.055-0.065,0.119-0.11,0.166c-0.42,0.432-0.75,0.935-1.1,1.42
			c-0.243,0.337-0.451,0.699-0.675,1.05c-0.188,0.2-0.298,0.436-0.331,0.705c0.011,0.055-0.028,0.128-0.062,0.182
			c-0.404,0.634-0.725,1.311-1.032,1.996c-0.105,0.235-0.239,0.457-0.362,0.683c-0.014,0.025-0.046,0.041-0.103,0.088
			c0.003-0.08-0.008-0.129,0.009-0.163c0.342-0.662,0.509-1.392,0.813-2.068c0.177-0.394,0.39-0.773,0.603-1.149
			c0.184-0.325,0.391-0.637,0.587-0.955L80.047,24.355z M83.152,19.681c0.168-0.277,0.332-0.558,0.507-0.83
			c0.423-0.658,0.851-1.313,1.278-1.968c0.291-0.446,0.578-0.895,0.881-1.332c0.345-0.498,0.699-0.99,1.064-1.473
			c0.196-0.258,0.424-0.492,0.64-0.735c0.025-0.029,0.063-0.046,0.125-0.047c-0.017,0.039-0.027,0.082-0.052,0.115
			c-0.473,0.634-0.964,1.253-1.415,1.902c-0.655,0.944-1.277,1.911-1.921,2.863C83.787,18.877,83.604,19.233,83.152,19.681z
			 M92.01,10.698c-0.223,0.502-0.564,0.744-1.025,0.724c-0.039-0.027-0.092-0.059-0.131-0.052c-0.179,0.032-0.358,0.068-0.531,0.122
			c-0.118,0.037-0.212,0.104-0.251,0.25c-0.112,0.221-0.259,0.255-0.44,0.102c-0.105-0.089-0.107-0.087-0.367-0.005
			c-0.04-0.092,0.018-0.135,0.083-0.176c0.14-0.088,0.279-0.178,0.419-0.267c0.208-0.132,0.429-0.216,0.679-0.218
			c0.309-0.002,0.59-0.075,0.813-0.31c0.073-0.077,0.173-0.128,0.264-0.187c0.026-0.017,0.063-0.029,0.094-0.026
			C91.752,10.667,91.888,10.684,92.01,10.698C91.769,10.928,91.888,10.684,92.01,10.698z M87.69,12.869
			c0.146-0.207,0.301-0.355,0.528-0.497c-0.091,0.184-0.154,0.332-0.236,0.468C87.926,12.933,87.829,12.918,87.69,12.869
			C87.836,12.662,87.829,12.918,87.69,12.869z M85.298,6.725c0.2-0.074,0.385-0.143,0.584-0.217
			c0.057,0.095,0.034,0.197-0.073,0.227c-0.146,0.042-0.304,0.043-0.457,0.056C85.337,6.792,85.317,6.748,85.298,6.725
			C85.498,6.651,85.317,6.748,85.298,6.725z M77.689,14.54c0.181-0.039,0.332,0.001,0.453,0.12c-0.027,0.036-0.047,0.09-0.083,0.104
			C77.918,14.822,77.796,14.757,77.689,14.54C77.827,14.598,77.796,14.757,77.689,14.54z M82.185,3.583
			c0.016,0.271-0.089,0.406-0.456,0.559c0.178-0.165,0.312-0.358,0.403-0.582C82.15,3.568,82.167,3.576,82.185,3.583
			C82.201,3.855,82.167,3.576,82.185,3.583z M81.312,22.461c-0.099,0.386-0.3,0.668-0.605,0.847
			c0.021-0.065,0.024-0.105,0.043-0.134C81.016,22.787,81.041,22.651,81.312,22.461z M83.837,4.49
			c-0.132,0.147-0.249,0.148-0.351,0.004c-0.027-0.075,0.068-0.195,0.128-0.172C83.682,4.348,83.734,4.41,83.837,4.49
			C83.734,4.544,83.734,4.41,83.837,4.49z M82.911,20.058c-0.103,0.176-0.206,0.353-0.31,0.529
			c-0.018-0.012-0.036-0.023-0.054-0.035c0.115-0.167,0.16-0.382,0.368-0.487C82.915,20.064,82.911,20.058,82.911,20.058z
			 M81.94,21.467c-0.017-0.01-0.034-0.02-0.05-0.029c-0.047,0.098-0.094,0.195-0.142,0.293
			C81.679,21.642,81.743,21.554,81.94,21.467z M83.147,19.675c-0.011,0.169-0.14,0.266-0.236,0.382c0,0,0.004,0.007,0.005,0.007
			c0.001-0.175,0.112-0.283,0.237-0.383C83.152,19.681,83.147,19.675,83.147,19.675z M80.054,24.349
			c-0.123-0.078-0.123-0.078-0.007-0.204c0,0.085,0,0.147,0,0.21C80.047,24.355,80.054,24.349,80.054,24.349z M81.743,21.724
			c-0.024,0.073-0.048,0.146-0.072,0.218c-0.066-0.115,0.032-0.149,0.077-0.211C81.748,21.73,81.743,21.724,81.743,21.724z
			 M81.425,4.301c0.029-0.015,0.058-0.03,0.087-0.044c0.006,0.012,0.012,0.024,0.018,0.036c-0.029,0.014-0.059,0.028-0.088,0.043
			C81.437,4.324,81.431,4.313,81.425,4.301C81.454,4.287,81.431,4.313,81.425,4.301z M81.316,22.467
			c0.011-0.052,0.021-0.105,0.032-0.157c0.015,0.007,0.029,0.013,0.044,0.02c-0.027,0.043-0.054,0.086-0.081,0.131
			C81.312,22.461,81.316,22.467,81.316,22.467z M88.944,12.03c-0.008,0-0.015,0-0.023,0.001c-0.01-0.034-0.001-0.048,0.026-0.042
			C88.946,12.003,88.945,12.017,88.944,12.03C88.936,12.031,88.945,12.017,88.944,12.03z M75.212,21.807
			c-0.03,0.001-0.035-0.016-0.015-0.051c0.011,0.002,0.021,0.004,0.032,0.006C75.223,21.777,75.217,21.792,75.212,21.807
			C75.205,21.806,75.217,21.792,75.212,21.807z M77.078,25.163c-0.015,0.036-0.035,0.041-0.06,0.015
			C77.034,25.142,77.054,25.137,77.078,25.163C77.068,25.174,77.068,25.157,77.078,25.163z M76.75,25.337
			c-0.019-0.011-0.019-0.021,0-0.031C76.767,25.316,76.767,25.327,76.75,25.337C76.744,25.331,76.754,25.332,76.75,25.337z
			 M74.259,23.884c-0.016,0.01-0.025,0.006-0.03-0.011c0.01-0.003,0.02-0.005,0.03-0.008C74.259,23.871,74.259,23.878,74.259,23.884
			C74.252,23.886,74.259,23.878,74.259,23.884z M93.151,34.622c-0.041,0.004-0.083,0.008-0.124,0.013
			c-0.221-0.016-0.246-0.096-0.074-0.239c0.121-0.083,0.252-0.154,0.385-0.214c0.145-0.066,0.346,0.011,0.408,0.141
			c0.063,0.132,0.017,0.234-0.127,0.255c-0.155,0.023-0.312,0.032-0.469,0.047C93.151,34.623,93.151,34.623,93.151,34.622
			C93.11,34.626,93.151,34.623,93.151,34.622z M100.967,30.294c-0.021,0.153,0.004,0.242,0.125,0.282
			c0.028,0.009,0.052,0.081,0.048,0.122c-0.001,0.026-0.054,0.056-0.089,0.069c-0.037,0.014-0.085,0.023-0.12,0.01
			c-0.08-0.029-0.179-0.056-0.224-0.117c-0.059-0.081,0-0.174,0.069-0.238C100.821,30.381,100.877,30.353,100.967,30.294
			C100.946,30.447,100.877,30.353,100.967,30.294z M101.483,30.602c-0.075-0.068-0.075-0.13-0.006-0.186
			C101.596,30.426,101.599,30.487,101.483,30.602C101.408,30.533,101.562,30.571,101.483,30.602z M95.977,33.803
			c-0.003-0.013-0.008-0.026-0.009-0.039c0.018-0.02,0.034-0.014,0.046,0.018C96.002,33.789,95.989,33.795,95.977,33.803
			C95.974,33.79,95.989,33.795,95.977,33.803z"/>
	</g>
	<g>
		<path d="M27.275,75.733c0.58,0.804,0.814,1.574,0.704,2.312c-0.112,0.737-0.402,1.318-0.871,1.742
			c-0.469,0.425-1.072,0.626-1.809,0.603c-0.737-0.022-1.464-0.391-2.178-1.105c-0.224-0.223-0.425-0.458-0.603-0.704
			c-0.179-0.245-0.313-0.479-0.402-0.703c-1.34,1.162-2.893,2.066-4.656,2.713c-1.765,0.647-3.551,0.971-5.36,0.971
			s-3.541-0.368-5.192-1.105c-1.653-0.737-3.038-1.886-4.154-3.45C1.905,75.8,1.291,74.45,0.912,72.953
			c-0.38-1.496-0.57-3.015-0.57-4.556s0.19-3.059,0.57-4.556c0.379-1.496,0.859-2.892,1.44-4.188
			c0.536-1.161,1.306-2.211,2.312-3.149c1.005-0.938,2.065-1.697,3.182-2.278c1.027-0.58,2.178-1.061,3.451-1.44
			c1.273-0.379,2.489-0.591,3.651-0.636c1.072,0,2.144,0.023,3.216,0.067c1.072,0.045,2.121,0.224,3.149,0.536
			c-0.045-3.216-0.079-5.93-0.101-8.141c-0.023-2.211-0.034-3.695-0.034-4.455c0.178-0.848,0.524-1.496,1.039-1.943
			c0.513-0.446,1.049-0.681,1.608-0.704c0.558-0.022,1.105,0.167,1.642,0.569c0.536,0.402,0.938,1.028,1.206,1.876v35.04
			c0.089,0.134,0.189,0.257,0.301,0.368C27.084,75.477,27.185,75.599,27.275,75.733z M21.379,70.909v-0.938c0-1.652,0-3.473,0-5.46
			c0-1.987-0.023-3.875-0.067-5.661l-0.402-0.201c-0.134-0.089-0.257-0.178-0.368-0.268c-0.112-0.089-0.235-0.178-0.369-0.268
			c-1.34-0.402-2.747-0.58-4.221-0.536c-1.474,0.045-2.859,0.324-4.154,0.837c-1.296,0.514-2.446,1.262-3.451,2.244
			c-1.005,0.983-1.708,2.234-2.11,3.752c-0.358,1.385-0.492,2.591-0.402,3.618c0.089,1.028,0.223,2.234,0.402,3.618
			c0.178,0.358,0.346,0.715,0.502,1.072c0.156,0.358,0.324,0.715,0.502,1.072l1.34,1.34c0.536,0.179,1.049,0.402,1.541,0.67
			c1.786,0.179,3.428,0.09,4.924-0.268c1.496-0.357,2.937-1.139,4.321-2.345c0.044-0.089,0.145-0.211,0.302-0.369
			c0.156-0.156,0.323-0.323,0.502-0.502c0.178-0.178,0.346-0.345,0.502-0.502c0.156-0.156,0.256-0.256,0.302-0.301L21.379,70.909z"
			/>
		<path d="M56.392,77.609c0,0.045-0.023,0.067-0.067,0.067c0.268,0.626,0.335,1.206,0.201,1.742
			c-0.134,0.536-0.392,0.971-0.771,1.306c-0.38,0.335-0.871,0.546-1.474,0.637c-0.603,0.089-1.262-0.045-1.977-0.402
			c-0.402-0.402-0.782-0.837-1.139-1.306c-0.358-0.469-0.67-0.949-0.938-1.44c-0.894,0.76-1.854,1.463-2.881,2.11
			c-1.028,0.647-2.055,0.994-3.082,1.039c-1.787,0.089-3.551,0.111-5.293,0.067c-1.742-0.045-3.395-0.626-4.958-1.742
			c-1.296-0.938-2.29-2.054-2.981-3.35c-0.693-1.295-1.139-2.668-1.34-4.121c-0.201-1.451-0.191-2.936,0.033-4.455
			c0.223-1.518,0.603-2.97,1.139-4.355c0.223-0.625,0.513-1.228,0.871-1.809c0.357-0.58,0.714-1.183,1.072-1.809
			c0.491-0.893,1.049-1.73,1.675-2.513c0.625-0.781,1.34-1.462,2.144-2.043c0.58-0.402,1.149-0.804,1.708-1.206
			c0.558-0.402,1.127-0.781,1.708-1.139c0.402-0.268,1.015-0.546,1.842-0.837c0.826-0.29,1.719-0.536,2.68-0.737
			c0.959-0.201,1.919-0.301,2.881-0.301c0.96,0,1.775,0.134,2.445,0.402c0.625-0.089,1.239,0.067,1.842,0.469
			s1.061,1.05,1.374,1.943c0,3.038-0.023,6.097-0.067,9.179c-0.045,3.082,0.156,6.142,0.603,9.179
			c0.044,0.402,0.211,0.882,0.502,1.44c0.29,0.559,0.603,1.105,0.938,1.642c0.335,0.536,0.636,1.028,0.904,1.474
			C56.258,77.185,56.392,77.475,56.392,77.609z M47.883,72.986c0.089-0.044,0.156-0.089,0.201-0.134
			c0.044-0.044,0.111-0.089,0.201-0.134c-0.581-2.68-0.861-5.46-0.837-8.341c0.022-2.881,0.055-5.527,0.1-7.939
			c-0.402,0-0.849,0.045-1.34,0.134c-0.492,0.09-0.971,0.212-1.44,0.368c-0.469,0.157-0.894,0.302-1.273,0.436
			c-0.38,0.134-0.66,0.246-0.837,0.335c-1.34,0.626-2.479,1.44-3.417,2.445c-0.938,1.005-1.708,2.122-2.312,3.35
			c-0.603,1.229-1.062,2.524-1.373,3.886c-0.313,1.363-0.469,2.736-0.469,4.121c0.089,0.358,0.201,0.715,0.335,1.072
			c0.134,0.358,0.245,0.715,0.335,1.072c0.223,0.224,0.458,0.469,0.704,0.737c0.245,0.268,0.502,0.514,0.771,0.737
			c0.402,0.179,0.804,0.335,1.206,0.469c0.402,0.134,0.804,0.268,1.206,0.402c0.759,0,1.496,0.023,2.211,0.067
			c0.714,0.045,1.429-0.044,2.144-0.268c0.67-0.446,1.329-0.893,1.977-1.34C46.621,74.014,47.257,73.522,47.883,72.986z"/>
		<path d="M74.159,75.599c-0.402-0.804-0.536-1.53-0.402-2.178c0.134-0.647,0.413-1.161,0.837-1.541
			c0.424-0.379,0.972-0.569,1.642-0.569s1.362,0.246,2.077,0.737c1.027,1.296,2.245,2.301,3.651,3.015
			c1.407,0.715,2.915,1.139,4.522,1.273l1.407-0.402c0.357-0.268,0.603-0.446,0.737-0.536c0.134-0.089,0.234-0.167,0.301-0.234
			c0.067-0.067,0.156-0.167,0.268-0.302c0.111-0.134,0.302-0.379,0.57-0.737c0.089-0.178,0.156-0.357,0.201-0.536
			c0.044-0.178,0.111-0.379,0.201-0.603c0-0.223,0.01-0.424,0.033-0.603c0.022-0.178,0.034-0.379,0.034-0.603l-0.402-1.206
			c-0.134-0.178-0.28-0.357-0.436-0.536c-0.157-0.178-0.302-0.357-0.436-0.536c-1.117-0.714-2.234-1.228-3.35-1.541
			c-1.117-0.312-2.2-0.636-3.249-0.971c-1.05-0.335-2.077-0.771-3.082-1.307c-1.005-0.536-1.955-1.407-2.847-2.613
			c-0.849-1.072-1.307-2.312-1.374-3.718c-0.067-1.407,0.156-2.757,0.67-4.053c0.513-1.295,1.273-2.446,2.278-3.451
			s2.154-1.642,3.45-1.909c1.876-0.446,3.786-0.491,5.729-0.134c1.943,0.358,3.762,0.983,5.46,1.876
			c0.804,0.581,1.273,1.24,1.407,1.977c0.134,0.737,0.034,1.374-0.301,1.909c-0.335,0.536-0.849,0.916-1.541,1.139
			c-0.693,0.224-1.485,0.112-2.378-0.335c-1.072-0.58-2.201-0.96-3.383-1.139c-1.184-0.178-2.378-0.178-3.584,0
			c-0.134,0.09-0.28,0.157-0.436,0.201c-0.157,0.045-0.302,0.112-0.436,0.201c-0.492,0.536-0.849,1.062-1.072,1.574
			c-0.224,0.514-0.313,1.15-0.268,1.91c0.044,0.179,0.156,0.447,0.335,0.804c0.134,0.179,0.268,0.335,0.402,0.469
			c0.134,0.134,0.268,0.291,0.402,0.469c1.072,0.581,2.245,1.039,3.518,1.374s2.512,0.715,3.718,1.139
			c1.206,0.425,2.322,0.983,3.35,1.675c1.027,0.693,1.831,1.708,2.412,3.048c1.072,2.546,1.24,4.891,0.503,7.035
			c-0.737,2.144-2.223,3.953-4.456,5.427c-0.581,0.357-1.229,0.659-1.943,0.905c-0.715,0.245-1.385,0.368-2.01,0.368
			c-2.412,0-4.78-0.547-7.102-1.641C77.464,79.094,75.588,77.565,74.159,75.599z"/>
		<path d="M118.954,51.815c0.357-0.625,0.759-1.072,1.206-1.34c0.446-0.268,0.915-0.402,1.407-0.402
			c0.759,0,1.384,0.291,1.876,0.871c0.491,0.581,0.737,1.385,0.737,2.412c-0.938,3.618-2.122,7.125-3.551,10.519
			c-1.43,3.395-2.993,6.723-4.69,9.982c-1.698,3.261-3.484,6.488-5.36,9.681s-3.708,6.42-5.494,9.681
			c-0.358,0.491-0.76,0.837-1.206,1.039c-0.447,0.201-0.871,0.301-1.273,0.301c-0.67,0-1.251-0.246-1.742-0.737
			c-0.492-0.492-0.737-1.184-0.737-2.077c0-0.134,0-0.28,0-0.436c0-0.157,0.022-0.325,0.067-0.502
			c1.474-2.725,2.992-5.405,4.556-8.04c1.563-2.635,3.082-5.293,4.556-7.973c-1.787-1.429-3.395-2.891-4.824-4.388
			c-1.43-1.496-2.713-3.082-3.853-4.757c-1.139-1.675-2.133-3.484-2.981-5.427c-0.849-1.943-1.586-4.054-2.211-6.332
			c0-1.161,0.235-2.043,0.704-2.646c0.469-0.603,1.105-0.904,1.91-0.904c0.58,0,1.127,0.19,1.641,0.569
			c0.513,0.38,0.881,0.995,1.105,1.843c0.491,1.875,1.083,3.607,1.775,5.192c0.692,1.586,1.496,3.06,2.412,4.422
			c0.915,1.363,1.943,2.658,3.082,3.886c1.139,1.229,2.4,2.423,3.785,3.584c1.474-2.903,2.824-5.829,4.053-8.776
			C117.133,58.112,118.149,55.031,118.954,51.815z"/>
	</g>
	<g>
		<path d="M62.823,55.3c-1.925,7.837-2.098,15.784-2.435,23.79c-0.136,3.225,4.865,3.212,5,0c0.318-7.568,0.434-15.045,2.256-22.46
			C68.414,53.498,63.592,52.169,62.823,55.3L62.823,55.3z"/>
	</g>
	<g>
		<path d="M60.293,92.332c0.202,0.01,0.379,0.058,0.531,0.144s0.275,0.189,0.371,0.311c0.095,0.121,0.152,0.26,0.168,0.417
			c0.017,0.157-0.02,0.316-0.109,0.478c-0.034,0.071-0.104,0.154-0.21,0.25c-0.107,0.096-0.205,0.154-0.295,0.175
			c-0.719,0.192-1.458,0.311-2.216,0.356c-0.758,0.046-1.508,0.033-2.249-0.038c-0.214-0.021-0.447-0.041-0.699-0.061
			c-0.253-0.021-0.475-0.086-0.666-0.197c-0.349-0.202-0.522-0.49-0.522-0.864v-6.46c-0.124-0.081-0.225-0.182-0.303-0.303
			c-0.079-0.122-0.126-0.25-0.144-0.387c-0.017-0.137,0.003-0.268,0.059-0.394s0.152-0.235,0.287-0.326
			c0.225-0.162,0.483-0.271,0.775-0.326c0.292-0.055,0.579-0.104,0.859-0.144c0.584-0.081,1.168-0.121,1.752-0.121
			c0.583,0,1.179-0.005,1.786-0.015c0.18,0,0.388-0.013,0.624-0.038c0.236-0.025,0.443-0.008,0.624,0.053
			c0.213,0.071,0.381,0.182,0.505,0.333c0.124,0.151,0.196,0.313,0.219,0.485s-0.014,0.339-0.109,0.5
			c-0.096,0.162-0.261,0.288-0.497,0.379c-0.281,0.101-0.581,0.146-0.901,0.136c-0.32-0.01-0.626-0.015-0.918-0.015
			c-0.427,0-0.854,0.005-1.281,0.015c-0.427,0.01-0.854,0.041-1.28,0.091v2.107c0.404,0.021,0.809,0.021,1.213,0
			c0.404-0.02,0.809-0.045,1.213-0.076c0.179-0.01,0.359-0.025,0.539-0.045c0.179-0.02,0.365-0.02,0.556,0
			c0.247,0.03,0.438,0.121,0.573,0.273s0.216,0.321,0.244,0.508c0.028,0.188-0.008,0.372-0.109,0.554s-0.264,0.313-0.489,0.394
			c-0.191,0.071-0.449,0.124-0.775,0.159c-0.326,0.036-0.668,0.061-1.028,0.076c-0.36,0.015-0.713,0.022-1.062,0.022
			s-0.64-0.005-0.876-0.015v1.865c0.617,0.071,1.241,0.081,1.87,0.03c0.629-0.05,1.247-0.146,1.853-0.288H60.293z"/>
		<path d="M76.002,93.818c-0.034,0.222-0.124,0.412-0.27,0.568c-0.146,0.157-0.315,0.266-0.506,0.326s-0.387,0.063-0.589,0.007
			s-0.371-0.189-0.506-0.402c-0.112-0.171-0.177-0.351-0.193-0.538c-0.017-0.187-0.037-0.381-0.059-0.584
			c-0.022-0.222-0.048-0.417-0.076-0.583c-0.028-0.167-0.059-0.361-0.093-0.584c-0.101-0.606-0.213-1.206-0.337-1.797
			c-0.124-0.591-0.264-1.185-0.421-1.782c-0.225,0.505-0.438,1.006-0.64,1.501c-0.202,0.496-0.404,0.996-0.606,1.501
			c-0.158,0.374-0.312,0.75-0.463,1.13c-0.152,0.379-0.329,0.746-0.531,1.099c-0.067,0.121-0.18,0.22-0.337,0.296
			c-0.158,0.076-0.326,0.119-0.506,0.129c-0.18,0.01-0.348-0.013-0.505-0.068s-0.275-0.149-0.354-0.281
			c-0.483-0.839-0.96-1.673-1.432-2.502c-0.472-0.829-0.944-1.663-1.416-2.502c-0.056,0.516-0.107,1.034-0.151,1.554
			c-0.045,0.521-0.096,1.039-0.152,1.554c-0.011,0.162-0.022,0.359-0.034,0.592s-0.031,0.467-0.059,0.705
			c-0.028,0.237-0.062,0.465-0.101,0.682c-0.04,0.218-0.104,0.387-0.194,0.508c-0.135,0.202-0.312,0.333-0.531,0.394
			c-0.219,0.061-0.432,0.065-0.64,0.015c-0.208-0.051-0.382-0.154-0.522-0.311c-0.14-0.157-0.205-0.356-0.193-0.599
			c0.022-0.415,0.062-0.824,0.118-1.229s0.107-0.813,0.152-1.228c0.09-0.9,0.182-1.794,0.278-2.684
			c0.095-0.89,0.188-1.79,0.278-2.699c0.022-0.263,0.082-0.505,0.177-0.728c0.095-0.222,0.3-0.379,0.615-0.47
			c0.124-0.041,0.253-0.056,0.388-0.046c0.135,0.01,0.258,0.046,0.371,0.106c0.247,0.142,0.441,0.336,0.581,0.583
			c0.141,0.248,0.272,0.483,0.396,0.706c0.213,0.364,0.421,0.73,0.624,1.099c0.202,0.369,0.404,0.735,0.606,1.1
			c0.247,0.465,0.497,0.922,0.75,1.372c0.252,0.45,0.514,0.902,0.783,1.357c0.067-0.152,0.132-0.304,0.194-0.455
			c0.062-0.152,0.126-0.303,0.194-0.455c0.124-0.263,0.238-0.528,0.345-0.796s0.216-0.533,0.329-0.796
			c0.157-0.343,0.306-0.682,0.447-1.016c0.14-0.334,0.278-0.672,0.413-1.016c0.112-0.252,0.219-0.525,0.32-0.819
			c0.101-0.293,0.264-0.541,0.488-0.743c0.157-0.151,0.329-0.243,0.514-0.273c0.185-0.03,0.359-0.018,0.522,0.038
			c0.163,0.056,0.309,0.149,0.438,0.28c0.129,0.132,0.222,0.283,0.278,0.455c0.067,0.233,0.146,0.496,0.236,0.789
			c0.09,0.293,0.168,0.556,0.236,0.789c0.124,0.424,0.236,0.841,0.337,1.251c0.101,0.409,0.197,0.826,0.287,1.251
			c0.157,0.698,0.295,1.388,0.413,2.07c0.118,0.683,0.222,1.373,0.312,2.07V93.818z"/>
		<path d="M79.699,94.788c-0.292-0.051-0.542-0.172-0.75-0.364c-0.208-0.192-0.312-0.43-0.312-0.713v-6.384
			c-0.202,0.03-0.399,0.007-0.59-0.068s-0.343-0.177-0.455-0.303c-0.113-0.126-0.177-0.273-0.194-0.44
			c-0.017-0.167,0.042-0.326,0.177-0.478c0.146-0.172,0.32-0.316,0.522-0.432s0.416-0.212,0.64-0.288s0.458-0.139,0.699-0.189
			c0.241-0.051,0.475-0.096,0.699-0.137c0.629-0.091,1.258-0.114,1.887-0.068c0.629,0.046,1.224,0.169,1.786,0.372
			c0.562,0.203,1.076,0.485,1.542,0.849c0.466,0.364,0.845,0.819,1.137,1.365c0.18,0.334,0.309,0.68,0.387,1.039
			s0.124,0.72,0.135,1.084c0.011,0.476-0.051,0.935-0.186,1.38c-0.135,0.445-0.337,0.862-0.606,1.251
			c-0.27,0.39-0.596,0.736-0.978,1.039s-0.809,0.556-1.28,0.758c-0.416,0.172-0.857,0.298-1.323,0.379
			c-0.466,0.081-0.924,0.151-1.373,0.212c-0.225,0.03-0.463,0.063-0.716,0.098c-0.252,0.036-0.497,0.053-0.733,0.053L79.699,94.788z
			 M81.519,86.736c-0.146,0-0.284,0.005-0.413,0.015c-0.129,0.01-0.267,0.025-0.413,0.045v6.081c0.067,0,0.124-0.005,0.168-0.015
			c0.044-0.01,0.09-0.015,0.135-0.015c0.044,0,0.084-0.005,0.118-0.015c0.157-0.02,0.287-0.035,0.388-0.045s0.196-0.023,0.287-0.038
			c0.089-0.015,0.182-0.033,0.278-0.053c0.095-0.02,0.205-0.045,0.329-0.076c0.651-0.151,1.165-0.392,1.542-0.72
			s0.66-0.781,0.851-1.357c0.124-0.334,0.179-0.672,0.168-1.016c-0.011-0.344-0.082-0.672-0.211-0.986
			c-0.129-0.313-0.317-0.599-0.564-0.856s-0.55-0.463-0.91-0.614c-0.292-0.122-0.581-0.202-0.868-0.243S81.822,86.756,81.519,86.736
			z"/>
		<path d="M91.668,93.833c-0.034,0.252-0.151,0.459-0.354,0.622c-0.202,0.162-0.421,0.265-0.657,0.311
			c-0.236,0.045-0.453,0.022-0.649-0.068c-0.197-0.091-0.3-0.273-0.312-0.546c-0.057-1.163-0.084-2.368-0.084-3.617s0-2.489,0-3.723
			c-0.18-0.061-0.314-0.152-0.404-0.273c-0.09-0.122-0.143-0.255-0.16-0.402c-0.017-0.146,0.003-0.296,0.059-0.447
			c0.056-0.152,0.141-0.283,0.253-0.395c0.124-0.121,0.292-0.232,0.505-0.333s0.446-0.194,0.699-0.28s0.502-0.16,0.75-0.22
			s0.455-0.106,0.624-0.136c0.708-0.131,1.421-0.129,2.14,0.007c0.719,0.137,1.351,0.382,1.896,0.735
			c0.545,0.354,0.952,0.814,1.222,1.38c0.27,0.566,0.297,1.213,0.084,1.941c-0.067,0.202-0.152,0.404-0.253,0.606
			s-0.219,0.389-0.354,0.561c-0.191,0.263-0.416,0.496-0.674,0.697c-0.258,0.203-0.539,0.39-0.842,0.562
			c0.213,0.202,0.416,0.415,0.606,0.637c0.191,0.223,0.404,0.424,0.64,0.606c0.09,0.071,0.222,0.182,0.396,0.333
			c0.174,0.152,0.343,0.313,0.505,0.485c0.163,0.172,0.306,0.341,0.43,0.508c0.124,0.167,0.18,0.306,0.168,0.417
			c-0.011,0.192-0.07,0.367-0.177,0.523c-0.107,0.157-0.236,0.278-0.388,0.364c-0.151,0.086-0.317,0.129-0.497,0.129
			s-0.359-0.056-0.539-0.167c-0.202-0.142-0.393-0.309-0.573-0.5s-0.354-0.369-0.522-0.531c-0.371-0.364-0.733-0.73-1.086-1.1
			c-0.354-0.369-0.716-0.73-1.087-1.084c-0.225,0.041-0.452,0.068-0.682,0.083c-0.23,0.015-0.458,0.033-0.683,0.053v2.153V93.833z
			 M94.684,86.494c-0.45-0.243-0.941-0.379-1.475-0.41c-0.533-0.03-1.047,0.036-1.542,0.197v3.427
			c0.505-0.03,1.002-0.088,1.491-0.174c0.489-0.085,0.94-0.275,1.356-0.568c0.225-0.162,0.407-0.351,0.547-0.569
			c0.14-0.217,0.225-0.439,0.253-0.667c0.028-0.228-0.006-0.45-0.101-0.667C95.119,86.845,94.942,86.655,94.684,86.494z"/>
	</g>
	<g>
		<path d="M70.609,42.214c9.673,0,9.673-15,0-15S60.936,42.214,70.609,42.214L70.609,42.214z"/>
	</g>
</g>
</svg>
