<?xml version="1.0" encoding="utf-8"?>
<!-- Generator: Adobe Illustrator 16.0.4, SVG Export Plug-In . SVG Version: 6.00 Build 0)  -->
<svg version="1.2" baseProfile="tiny" id="Layer_1" xmlns="http://www.w3.org/2000/svg" xmlns:xlink="http://www.w3.org/1999/xlink"
	 x="0px" y="0px" width="115px" height="115px" viewBox="0 0 115 115" xml:space="preserve">
<g id="Volume">
	<path d="M46.449,19.606c0-7.628-14.509,10.165-25.353,21.165H5.733c-3.069,0-4.504,3.212-4.504,6.281v21.077
		c0,3.069,1.435,3.643,4.504,3.643h15.889c10.781,13,24.827,28.385,24.827,21.887C40.471,69.859,42.695,35.135,46.449,19.606z"/>
	<g>
		<path fill="#B3B3B3" d="M73.289,97.959c0,0,0.183-0.314,0.523-0.904c0.348-0.575,0.886-1.435,1.483-2.512
			c0.626-1.054,1.328-2.372,2.134-3.855c0.367-0.767,0.782-1.556,1.201-2.393c0.389-0.848,0.798-1.74,1.225-2.67
			c0.794-1.878,1.641-3.889,2.352-6.069c0.763-2.157,1.396-4.472,1.967-6.862c0.581-2.392,0.957-4.897,1.302-7.432
			c0.276-2.547,0.444-5.139,0.45-7.737c-0.031-1.117-0.001-2.858-0.118-3.957c-0.053-0.623-0.066-1.223-0.125-1.864
			c-0.062-0.641-0.125-1.28-0.188-1.917c-0.343-2.533-0.686-5.045-1.275-7.434c-0.553-2.395-1.188-4.708-1.938-6.868
			c-0.185-0.541-0.352-1.084-0.545-1.608c-0.2-0.52-0.407-1.029-0.591-1.542c-0.349-1.037-0.823-1.972-1.192-2.926
			c-0.396-0.939-0.837-1.811-1.212-2.676c-0.419-0.844-0.816-1.646-1.189-2.398c-0.796-1.486-1.495-2.81-2.123-3.875
			c-0.602-1.088-1.114-1.929-1.462-2.509c-0.34-0.592-0.521-0.908-0.521-0.908s0.309,0.19,0.888,0.547
			c0.561,0.379,1.446,0.883,2.44,1.675c1.039,0.752,2.212,1.765,3.536,2.98c0.64,0.625,1.3,1.313,2.008,2.04
			c0.663,0.756,1.366,1.559,2.068,2.424c1.36,1.757,2.785,3.734,4.034,5.986c1.285,2.234,2.442,4.716,3.408,7.379
			c0.235,0.667,0.485,1.339,0.708,2.024c0.195,0.693,0.393,1.392,0.59,2.095c0.406,1.406,0.697,2.861,0.964,4.33
			c0.233,1.469,0.489,2.956,0.581,4.544l0.097,1.173l0.043,1.067l0.037,1.055l0.019,0.528l0.01,0.264l0.004,0.132l0.001,0.185
			l-0.003,0.071c-0.057,3.036-0.287,6.074-0.826,9.016c-0.288,1.465-0.564,2.922-0.988,4.324c-0.201,0.702-0.401,1.399-0.6,2.092
			c-0.239,0.679-0.478,1.353-0.714,2.022c-0.983,2.655-2.142,5.136-3.44,7.362c-1.258,2.247-2.688,4.218-4.054,5.971
			c-0.71,0.859-1.408,1.664-2.076,2.416c-0.714,0.721-1.372,1.41-2.014,2.032c-1.327,1.208-2.505,2.221-3.554,2.978
			c-1.004,0.799-1.872,1.276-2.434,1.658C73.599,97.77,73.289,97.959,73.289,97.959z"/>
		<path fill="#B3B3B3" d="M61.66,30.301c0,0,0.229,0.113,0.632,0.345c0.396,0.24,1.005,0.566,1.723,1.031
			c0.744,0.423,1.554,1.081,2.489,1.91c0.474,0.405,0.96,0.862,1.48,1.347c0.467,0.502,0.933,1.054,1.437,1.627
			c0.481,0.586,1.041,1.175,1.479,1.866c0.466,0.678,0.915,1.402,1.396,2.146c0.516,0.73,0.849,1.568,1.272,2.397
			c0.204,0.418,0.41,0.842,0.602,1.278c0.202,0.433,0.397,0.873,0.541,1.334c0.645,1.827,1.274,3.751,1.576,5.779
			c0.189,1.007,0.401,2.024,0.421,3.062l0.096,1.555l0.046,0.78l0.022,0.39l0.012,0.195l0.002,0.049l0.002,0.024l-0.005,0.243
			l-0.003,0.088c-0.149,1.912-0.109,3.6-0.603,5.853c-0.307,2.176-0.982,4.06-1.608,5.89c-0.326,0.911-0.757,1.77-1.159,2.607
			c-0.418,0.832-0.773,1.661-1.286,2.391c-0.483,0.742-0.938,1.463-1.403,2.141c-0.449,0.686-1.01,1.273-1.492,1.858
			c-0.506,0.571-0.976,1.121-1.443,1.621c-0.521,0.466-0.998,0.912-1.468,1.308c-0.923,0.806-1.742,1.465-2.515,1.914
			c-0.736,0.478-1.349,0.803-1.745,1.039c-0.404,0.229-0.63,0.336-0.63,0.336s0.087-0.238,0.25-0.684
			c0.178-0.429,0.406-1.079,0.741-1.842c0.15-0.395,0.368-0.787,0.531-1.265c0.159-0.48,0.356-0.975,0.55-1.509
			c0.193-0.533,0.422-1.076,0.646-1.652c0.187-0.591,0.383-1.213,0.588-1.862c0.473-1.247,0.802-2.656,1.203-4.087
			c0.227-0.705,0.364-1.459,0.517-2.218c0.124-0.768,0.388-1.502,0.482-2.296c0.094-0.793,0.234-1.582,0.368-2.379l0.101-0.598
			l0.032-0.576c0.037-0.38,0.074-0.763,0.111-1.146c0.211-1.379,0.2-3.457,0.289-5.282c-0.028-0.762-0.056-1.523-0.083-2.282
			c-0.026-0.414,0.001-0.832-0.035-1.242l-0.124-1.228c-0.039-0.41-0.077-0.818-0.115-1.224c-0.024-0.409-0.041-0.819-0.126-1.214
			c-0.136-0.796-0.269-1.587-0.363-2.38c-0.075-0.799-0.347-1.531-0.467-2.3c-0.157-0.757-0.28-1.517-0.503-2.223
			c-0.403-1.429-0.717-2.845-1.188-4.092c-0.199-0.643-0.407-1.257-0.582-1.864c-0.208-0.568-0.433-1.096-0.616-1.625
			c-0.187-0.527-0.376-1.019-0.533-1.498c-0.155-0.478-0.396-0.897-0.549-1.297c-0.348-0.781-0.576-1.434-0.751-1.861
			C61.736,30.544,61.66,30.301,61.66,30.301z"/>
		<path fill="#B3B3B3" d="M84.941,114.312c0,0,0.282-0.416,0.811-1.196c0.532-0.769,1.355-1.898,2.278-3.354
			c0.459-0.736,1.013-1.492,1.546-2.385c0.538-0.881,1.12-1.833,1.741-2.851c0.582-1.032,1.201-2.13,1.854-3.287
			c0.59-1.191,1.262-2.401,1.893-3.699c1.232-2.612,2.542-5.428,3.651-8.503c1.18-3.043,2.178-6.328,3.062-9.739
			c0.904-3.411,1.503-7,2.029-10.641c0.444-3.657,0.687-7.388,0.707-11.126l-0.052-2.844c-0.014-0.487-0.01-1.004-0.037-1.465
			l-0.099-1.352c-0.079-0.905-0.102-1.788-0.199-2.71c-0.1-0.921-0.198-1.84-0.297-2.755c-0.523-3.64-1.085-7.237-1.999-10.645
			c-0.384-1.724-0.946-3.368-1.396-5.014c-0.54-1.615-1.032-3.217-1.634-4.733c-0.289-0.763-0.551-1.528-0.853-2.264
			c-0.311-0.733-0.616-1.455-0.917-2.165c-0.554-1.45-1.275-2.758-1.854-4.084c-0.621-1.302-1.294-2.512-1.88-3.705
			c-0.648-1.16-1.264-2.26-1.841-3.294c-0.618-1.02-1.196-1.974-1.731-2.856c-0.526-0.897-1.088-1.662-1.545-2.401
			c-0.926-1.468-1.724-2.579-2.255-3.353c-0.526-0.783-0.808-1.201-0.808-1.201s0.408,0.292,1.175,0.84
			c0.743,0.573,1.914,1.346,3.232,2.518c1.379,1.118,2.932,2.601,4.688,4.361c0.835,0.921,1.723,1.901,2.658,2.934
			c0.876,1.083,1.81,2.224,2.737,3.452c1.797,2.491,3.684,5.273,5.33,8.422c0.892,1.543,1.606,3.224,2.416,4.915
			c0.394,0.85,0.722,1.738,1.077,2.626c0.356,0.888,0.713,1.788,1.008,2.716c0.309,0.926,0.62,1.86,0.934,2.801
			c0.258,0.958,0.519,1.922,0.779,2.893c0.537,1.94,0.914,3.946,1.273,5.968c0.151,1.017,0.304,2.038,0.456,3.062
			c0.159,1.022,0.212,2.109,0.31,3.166l0.129,1.599c0.036,0.523,0.038,0.995,0.059,1.496l0.048,1.482l0.024,0.742l0.012,0.371
			l0.006,0.186l0.002,0.209l-0.003,0.098c-0.071,4.177-0.376,8.354-1.083,12.407c-0.162,1.014-0.389,2.014-0.59,3.011
			c-0.203,0.998-0.432,1.983-0.71,2.951c-0.265,0.969-0.528,1.933-0.79,2.89c-0.315,0.939-0.629,1.873-0.939,2.798
			c-1.297,3.677-2.819,7.127-4.535,10.24c-1.657,3.143-3.551,5.919-5.354,8.405c-0.936,1.222-1.866,2.365-2.746,3.444
			c-0.938,1.03-1.829,2.008-2.666,2.926c-0.888,0.871-1.71,1.685-2.487,2.417c-0.771,0.737-1.548,1.366-2.219,1.94
			c-1.329,1.177-2.481,1.924-3.229,2.499C85.351,114.02,84.941,114.312,84.941,114.312z"/>
		<path fill="#B3B3B3" d="M73.446,17.042c0,0,0.309,0.191,0.889,0.549c0.561,0.383,1.426,0.865,2.428,1.667
			c1.046,0.762,2.22,1.778,3.541,2.992c0.64,0.625,1.298,1.314,2.006,2.04c0.664,0.756,1.364,1.56,2.066,2.424
			c1.359,1.757,2.785,3.733,4.032,5.986c1.286,2.232,2.444,4.714,3.409,7.376c0.235,0.669,0.473,1.344,0.711,2.023
			c0.195,0.694,0.392,1.392,0.59,2.095c0.401,1.406,0.701,2.859,0.966,4.328c0.231,1.475,0.491,2.963,0.581,4.475
			c0.072,0.753,0.13,1.509,0.143,2.268l0.039,1.138l0.02,0.569l0.01,0.285L94.88,57.4l-0.002,0.25
			c-0.047,2.653-0.279,6.052-0.818,8.91c-0.289,1.465-0.558,2.924-0.985,4.325c-0.201,0.702-0.401,1.399-0.601,2.092
			c-0.224,0.685-0.475,1.356-0.711,2.023c-0.984,2.656-2.142,5.137-3.439,7.364c-1.259,2.247-2.69,4.219-4.056,5.971
			c-0.711,0.859-1.411,1.663-2.078,2.416c-0.714,0.721-1.374,1.409-2.016,2.032c-1.33,1.209-2.506,2.218-3.548,2.966
			c-0.997,0.789-1.887,1.288-2.447,1.666c-0.58,0.355-0.89,0.544-0.89,0.544s0.183-0.315,0.523-0.906
			c0.35-0.579,0.866-1.417,1.472-2.504c0.632-1.063,1.336-2.385,2.139-3.867c0.376-0.751,0.776-1.551,1.199-2.394
			c0.388-0.848,0.796-1.74,1.223-2.671c0.793-1.877,1.641-3.888,2.35-6.068c0.764-2.155,1.398-4.47,1.968-6.86
			c0.589-2.39,0.953-4.896,1.307-7.429c0.276-2.63,0.441-4.861,0.458-7.844l-0.027-1.84c0.004-0.65-0.035-1.296-0.085-1.941
			c-0.057-0.644-0.063-1.292-0.124-1.933c-0.063-0.642-0.126-1.281-0.188-1.918c-0.334-2.536-0.688-5.045-1.271-7.437
			c-0.554-2.396-1.188-4.71-1.938-6.871c-0.701-2.183-1.542-4.197-2.33-6.077c-0.397-0.938-0.84-1.809-1.213-2.675
			c-0.42-0.844-0.818-1.646-1.192-2.398c-0.798-1.487-1.497-2.807-2.118-3.864c-0.594-1.079-1.128-1.941-1.474-2.518
			C73.627,17.357,73.446,17.042,73.446,17.042z"/>
	</g>
</g>
</svg>
