<?xml version="1.0" encoding="utf-8"?>
<!-- Generator: Adobe Illustrator 16.0.4, SVG Export Plug-In . SVG Version: 6.00 Build 0)  -->
<svg version="1.2" baseProfile="tiny" id="Layer_1" xmlns="http://www.w3.org/2000/svg" xmlns:xlink="http://www.w3.org/1999/xlink"
	 x="0px" y="0px" width="115px" height="115px" viewBox="0 0 115 115" xml:space="preserve">
<g id="Volume">
	<path d="M55.154,22.471c0-7.051-13.413,9.396-23.437,19.564H17.516c-2.838,0-4.163,2.97-4.163,5.806v19.483
		c0,2.837,1.325,3.367,4.163,3.367h14.687c9.967,12.018,22.952,26.239,22.952,20.232C49.627,68.925,51.683,36.826,55.154,22.471z"/>
	<g>
		<path fill="#B3B3B3" d="M79.965,94.901c0,0,0.629-1.192,1.831-3.186c0.282-0.507,0.677-1.028,0.979-1.647
			c0.307-0.604,0.638-1.257,0.992-1.956c0.349-0.691,0.74-1.398,1.136-2.146c0.344-0.793,0.705-1.628,1.083-2.499
			c0.349-0.877,0.854-1.705,1.146-2.679c0.326-0.956,0.692-1.92,1.051-2.914c0.401-0.974,0.659-2.033,0.952-3.096
			c0.254-1.076,0.679-2.113,0.876-3.239c0.2-1.124,0.438-2.25,0.68-3.386l0.177-0.855l0.089-0.877
			c0.07-0.583,0.142-1.168,0.213-1.756c0.074-0.586,0.148-1.175,0.223-1.765c0.105-0.586,0.051-1.191,0.1-1.786
			c0.051-1.194,0.102-2.393,0.152-3.592c-0.05-1.227-0.1-2.454-0.149-3.677c-0.042-0.629-0.025-1.335-0.098-1.898
			c-0.073-0.564-0.147-1.126-0.221-1.687c-0.069-0.563-0.139-1.124-0.207-1.681c-0.051-0.56-0.094-1.12-0.241-1.692
			c-0.237-1.137-0.479-2.262-0.677-3.386c-0.17-1.133-0.614-2.165-0.86-3.242c-0.299-1.06-0.533-2.128-0.938-3.101
			c-0.727-1.979-1.34-3.921-2.174-5.6c-0.375-0.872-0.733-1.707-1.075-2.501c-0.403-0.768-0.786-1.497-1.146-2.181
			c-0.355-0.703-0.688-1.361-0.996-1.97c-0.297-0.624-0.67-1.12-0.945-1.624c-1.164-1.967-1.806-3.183-1.806-3.183
			s1.124,0.697,3.05,2.079c0.473,0.354,1.037,0.716,1.558,1.196c0.531,0.471,1.084,1.005,1.69,1.571
			c0.605,0.567,1.234,1.189,1.902,1.85c0.593,0.72,1.217,1.478,1.867,2.269c0.32,0.404,0.647,0.817,0.981,1.238
			c0.166,0.212,0.334,0.426,0.503,0.643c0.147,0.229,0.297,0.461,0.446,0.694c0.588,0.95,1.196,1.932,1.82,2.942
			c0.672,0.998,1.111,2.138,1.659,3.269c0.269,0.568,0.53,1.147,0.786,1.737c0.267,0.586,0.528,1.181,0.711,1.808
			c0.419,1.238,0.804,2.515,1.2,3.808c0.426,1.278,0.596,2.732,0.867,4.124c0.123,0.706,0.247,1.415,0.37,2.126
			c0.127,0.712,0.114,1.309,0.169,1.971l0.117,1.945l0.06,0.974l0.03,0.487l0.015,0.244l0.007,0.122l0.006,0.244l-0.002,0.033
			l-0.004,0.065c-0.2,2.8-0.186,5.622-0.822,8.326c-0.389,2.739-1.26,5.326-2.082,7.805c-0.181,0.628-0.469,1.214-0.725,1.803
			c-0.257,0.589-0.525,1.166-0.791,1.734c-0.542,1.132-0.999,2.265-1.676,3.26c-0.629,1.015-1.223,2.003-1.825,2.937
			c-0.285,0.476-0.616,0.914-0.958,1.331c-0.335,0.419-0.664,0.832-0.985,1.234c-0.656,0.795-1.268,1.56-1.872,2.264
			c-0.686,0.667-1.317,1.302-1.933,1.872c-0.613,0.57-1.172,1.105-1.705,1.577c-0.527,0.476-1.068,0.814-1.537,1.162
			C81.107,94.186,79.965,94.901,79.965,94.901z"/>
		<path fill="#B3B3B3" d="M69.215,32.357c0,0,0.829,0.43,2.176,1.272c0.688,0.391,1.438,1,2.302,1.766
			c0.438,0.374,0.888,0.797,1.368,1.246c0.432,0.464,0.862,0.974,1.328,1.504c0.445,0.542,0.962,1.086,1.367,1.725
			c0.431,0.626,0.846,1.296,1.291,1.983c0.477,0.675,0.784,1.449,1.176,2.216c0.364,0.776,0.78,1.565,1.057,2.415
			c0.596,1.688,1.178,3.468,1.457,5.342c0.176,0.931,0.371,1.871,0.39,2.831l0.088,1.438l0.043,0.72l0.021,0.361l0.011,0.18
			l0.002,0.045l0.002,0.023l-0.005,0.224l-0.003,0.082c-0.138,1.767-0.102,3.327-0.557,5.41c-0.284,2.011-0.908,3.752-1.487,5.444
			c-0.301,0.842-0.699,1.636-1.071,2.41c-0.386,0.769-0.715,1.535-1.188,2.21c-0.447,0.686-0.867,1.353-1.297,1.979
			c-0.415,0.633-0.934,1.177-1.379,1.717c-0.469,0.528-0.902,1.036-1.335,1.499c-0.481,0.431-0.923,0.842-1.357,1.208
			c-0.853,0.745-1.61,1.354-2.324,1.769c-1.379,0.866-2.195,1.271-2.195,1.271s0.315-0.906,0.916-2.334
			c0.14-0.365,0.341-0.728,0.491-1.169c0.147-0.444,0.33-0.901,0.508-1.395c0.179-0.493,0.391-0.995,0.598-1.527
			c0.173-0.546,0.354-1.121,0.544-1.721c0.438-1.152,0.741-2.455,1.112-3.777c0.209-0.651,0.336-1.349,0.478-2.051
			c0.114-0.709,0.358-1.388,0.446-2.123c0.086-0.734,0.216-1.462,0.34-2.199l0.093-0.553l0.03-0.532l0.103-1.06
			c0.194-1.275,0.185-3.195,0.267-4.883c-0.025-0.704-0.051-1.408-0.076-2.11c-0.024-0.382,0.001-0.769-0.032-1.148l-0.115-1.135
			c-0.036-0.378-0.071-0.756-0.106-1.131c-0.022-0.378-0.037-0.757-0.116-1.122c-0.126-0.736-0.249-1.466-0.336-2.2
			c-0.069-0.739-0.32-1.416-0.431-2.127c-0.146-0.7-0.26-1.402-0.466-2.055c-0.373-1.321-0.662-2.63-1.097-3.783
			c-0.185-0.594-0.378-1.162-0.539-1.723c-0.191-0.525-0.399-1.013-0.569-1.502c-0.172-0.487-0.348-0.941-0.492-1.385
			c-0.145-0.442-0.367-0.829-0.508-1.199C69.511,33.244,69.215,32.357,69.215,32.357z"/>
		<path display="none" fill="#B3B3B3" d="M101.373,125.463c0,0,0.337-0.498,0.97-1.431c0.639-0.918,1.615-2.277,2.733-4.006
			c0.559-0.872,1.214-1.785,1.846-2.856c0.624-1.078,1.343-2.2,2.079-3.414c0.695-1.234,1.437-2.548,2.217-3.933
			c0.705-1.425,1.51-2.872,2.265-4.424c1.474-3.125,3.04-6.493,4.367-10.172c0.717-1.815,1.327-3.724,1.97-5.658
			c0.327-0.965,0.561-1.974,0.869-2.964c0.289-0.997,0.604-1.995,0.824-3.029c1.082-4.081,1.798-8.375,2.427-12.73
			c0.531-4.374,0.821-8.838,0.846-13.31l-0.062-3.403c-0.016-0.582-0.011-1.201-0.045-1.753l-0.118-1.617
			c-0.094-1.083-0.12-2.139-0.237-3.243c-0.119-1.102-0.237-2.201-0.355-3.296c-0.626-4.354-1.298-8.658-2.391-12.735
			c-0.222-1.034-0.517-2.037-0.812-3.032c-0.303-0.992-0.553-1.994-0.859-2.966c-0.646-1.932-1.235-3.849-1.954-5.662
			c-0.346-0.912-0.66-1.828-1.021-2.708c-0.371-0.876-0.737-1.74-1.097-2.589c-0.663-1.734-1.525-3.299-2.219-4.886
			c-0.743-1.559-1.548-3.006-2.249-4.432c-0.775-1.387-1.511-2.704-2.202-3.94c-0.727-1.22-1.447-2.34-2.066-3.421
			c-0.626-1.077-1.288-2-1.845-2.875c-1.122-1.743-2.067-3.081-2.706-4.004c-0.63-0.937-0.966-1.437-0.966-1.437
			s0.488,0.35,1.405,1.005c0.887,0.687,2.297,1.604,3.859,3.019c0.791,0.697,1.719,1.432,2.643,2.313
			c0.936,0.872,1.914,1.851,2.973,2.896c1.009,1.084,2.061,2.264,3.181,3.51c1.047,1.296,2.164,2.661,3.273,4.13
			c2.15,2.98,4.407,6.308,6.377,10.075c1.066,1.847,1.921,3.857,2.89,5.88c0.471,1.017,0.864,2.078,1.289,3.141
			c0.426,1.062,0.853,2.138,1.206,3.25c0.37,1.105,0.759,2.219,1.116,3.35c0.309,1.146,0.62,2.3,0.933,3.46
			c0.335,1.158,0.585,2.342,0.836,3.534c0.226,1.196,0.519,2.388,0.688,3.606c0.181,1.216,0.362,2.438,0.545,3.662
			c0.191,1.223,0.254,2.523,0.37,3.787l0.155,1.913c0.043,0.627,0.045,1.191,0.069,1.79l0.058,1.773l0.029,0.887l0.015,0.443
			l0.007,0.222l0.002,0.25l-0.004,0.117c-0.085,4.997-0.45,9.994-1.295,14.842c-0.194,1.213-0.465,2.409-0.706,3.602l-0.385,1.78
			c-0.155,0.585-0.311,1.169-0.465,1.751c-0.317,1.161-0.613,2.318-0.944,3.457c-0.378,1.124-0.753,2.24-1.124,3.347
			c-1.552,4.399-3.373,8.526-5.426,12.25c-1.982,3.76-4.248,7.081-6.404,10.055c-1.119,1.462-2.231,2.829-3.285,4.12
			c-1.128,1.24-2.176,2.421-3.188,3.501c-1.063,1.041-2.043,2.019-2.98,2.888c-0.928,0.878-1.864,1.622-2.658,2.318
			c-1.575,1.421-2.964,2.307-3.854,2.997C101.862,125.114,101.373,125.463,101.373,125.463z"/>
	</g>
</g>
</svg>
