<?xml version="1.0" encoding="utf-8"?>
<!-- Generator: Adobe Illustrator 16.0.4, SVG Export Plug-In . SVG Version: 6.00 Build 0)  -->
<svg version="1.2" baseProfile="tiny" id="Layer_1" xmlns="http://www.w3.org/2000/svg" xmlns:xlink="http://www.w3.org/1999/xlink"
	 x="0px" y="0px" width="115px" height="115px" viewBox="0 0 115 115" xml:space="preserve">
<g id="Pitch">
	<polygon points="40.095,95.643 32.705,96.211 32.705,15.641 40.095,15.072 	"/>
	<path d="M1,99.527c0,8.629,8.753,14.744,19.548,13.654c10.794-1.085,19.547-8.965,19.547-17.594
		c0-8.633-8.753-14.746-19.547-13.658C9.753,83.018,1,90.896,1,99.527z"/>
	<polygon points="112.042,88.188 104.652,88.756 104.652,8.188 112.042,7.617 	"/>
	<path d="M72.947,91.869c0,8.629,8.753,14.744,19.547,13.656c10.795-1.086,19.548-8.965,19.548-17.596s-8.753-14.746-19.548-13.658
		C81.7,75.359,72.947,83.238,72.947,91.869z"/>
	<path d="M112.032,25.584l-79.3,8.521l0.015-19.327c0.024-3.531,2.904-6.685,6.37-7.042l66.615-7.254
		c3.468-0.358,6.334,2.216,6.31,5.745L112.032,25.584z"/>
</g>
</svg>
